<?xml version="1.0" encoding="UTF-8"?>
<svg width="100px" height="24px" viewBox="0 0 100 24" version="1.1" xmlns="http://www.w3.org/2000/svg" xmlns:xlink="http://www.w3.org/1999/xlink">
    <g id="00Logo_Autentia" stroke="none" stroke-width="1" fill="none" fill-rule="evenodd">
        <g fill="#10069F" fill-rule="nonzero">
            <g id="Group">
                <path d="M0.0278551532,12.1140365 C0.0278551532,15.5070883 2.54874652,18.1710547 5.75208914,18.1710547 C6.93593315,18.1710547 7.99442897,17.8766163 8.91364903,17.2877395 L9.08077994,17.1755725 L9.08077994,17.9326998 L12.7855153,17.9326998 L12.7855153,6.33743574 L9.08077994,6.33743574 L9.08077994,7.06652126 L8.91364903,6.95435426 C8.00835655,6.36547749 6.93593315,6.0710391 5.75208914,6.0710391 C2.53481894,6.0710391 0.0278551532,8.72098458 0.0278551532,12.1140365 Z M9.55431755,12.1280573 C9.55431755,14.0629382 8.454039,15.1705873 6.53203343,15.1705873 C4.88857939,15.1705873 3.66295265,13.8666459 3.66295265,12.1280573 C3.66295265,10.3894688 4.90250696,9.07150647 6.53203343,9.07150647 C9.26183844,9.05748559 9.55431755,11.2026795 9.55431755,12.1280573 Z" id="Shape"></path>
                <path d="M19.2339833,12.3664122 L19.2339833,6.33743574 L15.5292479,6.33743574 L15.5292479,12.9833307 C15.5292479,16.222153 17.4512535,18.3112634 20.4317549,18.3112634 C21.5877437,18.3112634 22.5905292,17.9607415 23.5793872,17.1895934 L23.7604457,17.0493846 L23.7604457,17.9467207 L27.4651811,17.9467207 L27.4651811,6.35145661 L23.7604457,6.35145661 L23.7604457,13.740458 L23.7325905,13.7684998 C23.0222841,14.5536688 22.2562674,14.9742951 21.4902507,14.9742951 C20.0557103,14.9602742 19.2339833,14.0208755 19.2339833,12.3664122 Z" id="Shape"></path>
                <path d="M37.1448468,14.8901698 C35.8913649,14.8901698 35.1949861,14.2171678 35.1949861,12.9973516 L35.1949861,9.49213273 L39.1922006,9.49213273 L39.1922006,6.32341486 L35.1949861,6.32341486 L35.1949861,1.55631718 L31.4902507,3.47717713 L31.4902507,6.32341486 L29.1922006,6.32341486 L29.1922006,9.49213273 L31.4902507,9.49213273 L31.4902507,13.1095186 C31.4902507,16.2501947 33.3008357,18.2832217 36.1002786,18.2832217 C37.2144847,18.2832217 38.0640669,18.1990964 39.54039,17.7364075 L39.1364903,14.6097523 C38.2869081,14.7780028 37.6880223,14.8901698 37.1448468,14.8901698 Z" id="Shape"></path>
                <path d="M46.9637883,6.0710391 C43.356546,6.0710391 40.821727,8.56675495 40.821727,12.1280573 C40.821727,15.7033806 43.4122563,18.2131173 47.1309192,18.2131173 C49.9442897,18.2131173 52.1169916,16.7409254 52.7019499,14.4695435 L49.0250696,14.4695435 C48.6490251,15.0163577 47.994429,15.3248169 47.1727019,15.3248169 C45.7799443,15.3248169 44.8050139,14.6237732 44.4289694,13.3478735 L44.3871866,13.2076647 L52.7855153,13.2076647 C52.8551532,12.7870385 52.8551532,12.3383705 52.8551532,11.9037233 C52.8551532,8.45458794 50.4317549,6.0710391 46.9637883,6.0710391 Z M44.3454039,11.0905125 L44.3732591,10.9503038 C44.6935933,9.64636236 45.6267409,8.88923508 46.9498607,8.88923508 C48.3008357,8.88923508 49.1643454,9.61832061 49.3871866,10.9643247 L49.4150418,11.0905125 L44.3454039,11.0905125 Z" id="Shape"></path>
                <path d="M62.0752089,5.97289297 C60.9052925,5.97289297 59.8607242,6.35145661 58.8997214,7.12260477 L58.718663,7.26281352 L58.718663,6.33743574 L55.0139276,6.33743574 L55.0139276,17.9326998 L58.718663,17.9326998 L58.718663,10.585761 L58.7465181,10.5577193 C59.4428969,9.75852937 60.0139276,9.32388222 61.0167131,9.32388222 C62.4373259,9.32388222 63.2590529,10.2773018 63.2590529,11.9177442 L63.2590529,17.9326998 L66.9777159,17.9326998 L66.9777159,11.2868048 C66.9777159,8.06200343 65.0557103,5.97289297 62.0752089,5.97289297 Z" id="Shape"></path>
                <path d="M76.3509749,14.8901698 C75.097493,14.8901698 74.4011142,14.2171678 74.4011142,12.9973516 L74.4011142,9.49213273 L78.3983287,9.49213273 L78.3983287,6.32341486 L74.4011142,6.32341486 L74.4011142,0.518772394 L70.6963788,2.43963234 L70.6963788,6.32341486 L68.3983287,6.32341486 L68.3983287,9.49213273 L70.6963788,9.49213273 L70.6963788,13.1095186 C70.6963788,16.2501947 72.5069638,18.2832217 75.3064067,18.2832217 C76.4206128,18.2832217 77.270195,18.1990964 78.7465181,17.7364075 L78.3426184,14.6097523 C77.4930362,14.7780028 76.8941504,14.8901698 76.3509749,14.8901698 Z" id="Shape"></path>
                <rect id="Rectangle-path" x="81.0445682" y="6.33743574" width="3.70473538" height="11.5952641"></rect>
                <path d="M92.8272981,6.0710391 C89.6100279,6.0710391 87.1030641,8.73500545 87.1030641,12.1280573 C87.1030641,15.5211092 89.6239554,18.1850756 92.8272981,18.1850756 C94.0111421,18.1850756 95.0696379,17.8906372 95.9888579,17.3017604 L96.1559889,17.1895934 L96.1559889,17.9467207 L99.8607242,17.9467207 L99.8607242,6.35145661 L96.1559889,6.35145661 L96.1559889,7.08054214 L95.9888579,6.96837514 C95.0835655,6.36547749 94.0111421,6.0710391 92.8272981,6.0710391 Z M96.6295265,12.1280573 C96.6295265,14.0629382 95.5292479,15.1705873 93.6072423,15.1705873 C91.9637883,15.1705873 90.7381616,13.8666459 90.7381616,12.1280573 C90.7381616,10.3894688 91.9777159,9.07150647 93.6072423,9.07150647 C96.3370474,9.05748559 96.6295265,11.2026795 96.6295265,12.1280573 Z" id="Shape"></path>
                <path d="M82.7715877,0.0280417511 C81.6295265,0.0701043776 80.6824513,1.02352391 80.6824513,2.14519396 C80.6824513,2.72004985 80.8913649,3.25284312 81.2952646,3.64542764 C81.7130919,4.0660539 82.2980501,4.29038791 82.9387187,4.27636704 C84.0947075,4.24832528 85.0696379,3.28088487 85.0696379,2.17323571 C85.0696379,1.58435893 84.8467967,1.05156566 84.4289694,0.65898115 C83.9972145,0.224334008 83.3983287,-0.0140208755 82.7715877,0.0280417511 Z" id="Shape"></path>
            </g>
            <rect id="Rectangle-path" x="55" y="20" width="12" height="3.06122449"></rect>
        </g>
    </g>
</svg>