<svg width="132" height="44" viewBox="0 0 132 44" xmlns="http://www.w3.org/2000/svg" xmlns:xlink="http://www.w3.org/1999/xlink"><title>flywire logo</title><defs><path id="a" d="M131.882 21.972V.144H.01V43.8H131.88z"/></defs><g fill="none" fill-rule="evenodd"><path fill="#0084C0" d="M27.897 34.49L33.367.145h4.44l-5.47 34.347h-4.44M55.022 33.83C53.972 40.513 50.056 44 43.896 44c-3.772 0-6.732-1.384-8.738-3.724l2.483-3.057c1.72 2.005 3.773 2.96 6.21 2.96 3.723 0 6.015-2.15 6.732-6.35l.286-1.672h-.096c-2.005 1.862-4.345 2.865-6.923 2.865-4.776 0-7.07-2.387-7.07-6.924 0-.86.097-1.767.24-2.77l2.242-14.13h4.392L41.46 25.33c-.142.764-.19 1.384-.19 1.957 0 2.58 1.146 3.87 3.725 3.87 2.673 0 5.06-1.625 6.685-4.443L54.16 11.2h4.44l-3.578 22.63M104.993 15.402l.94-4.29h-4.378L97.83 34.55h4.44l1.973-12.58c.872-4.613 4.29-6.902 7.913-6.902.44 0 .762 0 1.116.035l.662-4.167c-4.187-.65-7.33 1.48-8.94 4.466M88.254 11.2L80.97 27.415 78.378 11.2h-4.31l-7.49 16.215-2.47-16.215h-4.493l3.78 23.437h4.563l7.327-16.244 2.552 16.244h4.52L92.917 11.2h-4.663M89.805 34.637L93.53 11.2h4.44l-3.724 23.437h-4.44M99.105 6.498c0 1.404-1.14 2.543-2.548 2.543-1.408 0-2.548-1.138-2.548-2.542s1.14-2.542 2.547-2.542c1.407 0 2.548 1.138 2.548 2.542"/><mask id="b" fill="#fff"><use xlink:href="#a"/></mask><path d="M119.963 31.108c-1.63.032-2.877-.443-3.7-1.41-.866-1.017-1.1-2.69-.726-4.973h6.49c1.96 0 4.603-.264 6.722-1.552 2.078-1.263 3.132-3.196 3.132-5.743 0-1.767-.76-3.5-2.086-4.758-1.54-1.462-3.747-2.234-6.38-2.234-9.626 0-10.8 6.828-11.745 12.317l-.335 2.093c-.406 2.925.14 5.286 1.665 7.217 1.42 1.796 3.848 2.785 6.84 2.785 9.693 0 10.572-8.148 10.572-8.148h-4.08s-.195 4.284-6.37 4.406zm-3.72-10.735c.717-3.968 3.16-6.153 6.877-6.153 2.725 0 4.486 1.294 4.486 3.297 0 2.458-1.745 3.603-5.492 3.603h-6.01l.14-.747zM16.57 17.682l.433-2.566H1.146l.652-4.08h15.847l.308-1.95C18.86 3.405 22.67.135 28.448.143h3.175L31 4.12l-2.975-.006c-3.214-.003-5.05 1.587-5.63 5.135l-.284 1.787h6.128l-.65 4.08h-6.12l-3.34 19.762c-.91 5.677-4.778 8.927-10.59 8.92l-.333-.002.678-4.308.217-.002c3.27.004 5.03-1.38 5.608-4.91l2.17-12.817H0l.652-4.078H16.57" fill="#0084C0" mask="url(#b)"/></g></svg>