<svg width="54" height="54" viewBox="0 0 54 54" fill="none" xmlns="http://www.w3.org/2000/svg" aria-labelledby="logoTitle" role="img">
                        <title id="logoTitle">Logo</title>
                        <path fill="#E1E1E1" d="M0 0h54v54H0z"></path>
                        <path fill="#00008F" d="M0 0h54v54H0z"></path>
                        <path d="M33.194 26 54 0h-3L30 26h3.194Z" fill="#EE2524"></path>
                        <path fill-rule="evenodd" clip-rule="evenodd" d="M41.492 41.162c-.39-1.255-.75-2.418-1.027-3.21l-2.512-8.34c-.093-.38-.186-1.517-.186-1.517h-3.814c-.279.569-.558 1.042-.837 1.516-.279.474-5.116 7.015-6.232 8.436l-.28.285s0-.095-.092-.285c-.186-.663-.559-1.895-.559-1.895s4.094-5.403 4.559-5.972C31.72 28.57 32.465 28 32.465 28h-3.907s0 .758-.372 1.232c-.186.285-3.442 4.455-3.442 4.455s-1.023-3.791-1.21-4.36C23.35 28.663 23.35 28 23.35 28h-4.744c.186.19.744 1.611.744 1.611l2.325 7.299-1.395 1.8c0-.05-.723-2.447-1.407-4.716v-.002l-.002-.003a376.414 376.414 0 0 1-1.196-3.998c-.186-.38-.279-1.991-.279-1.991h-4.093s-.744 1.706-1.302 2.56c-.186.378-2.79 3.886-5.488 7.487C3.442 42.123.186 46.294.093 46.39L0 46.483V48h2.326c0-.19 1.302-2.085 1.488-2.275.186-.19 4.651-6.161 4.651-6.161h7.814l.93 3.223s-2.232 3.033-2.883 3.791L12.93 48h3.721s.186-.284.465-.853c.28-.569 1.303-1.896 1.303-1.896s.465 1.422.465 1.706c.093.285.186 1.043.186 1.043h3.72s.187-.284.466-.853 1.395-1.801 1.395-1.801.465 1.327.465 1.611c.093.285.186 1.043.186 1.043h4.745l-.838-1.706c-.093-.284-1.581-5.024-1.581-5.024l1.21-1.8h7.906s1.86 5.876 2.047 6.634c.279.759.279 1.801.279 1.801H44c-.522-.332-1.594-3.792-2.508-6.743Zm-10.794-3.968s3.349-4.17 3.907-5.403c0 .095 0 .854.186 1.517.186.664 1.209 3.886 1.209 3.886h-5.302Zm-16.372-5.403c-.559 1.233-3.907 5.403-3.907 5.403h5.302s-1.023-3.222-1.21-3.886c-.037-.272-.06-.559-.08-.81-.028-.363-.05-.65-.105-.706Zm9.395 10.522-1.488 1.99-.838-2.748 1.396-1.896s.837 2.464.93 2.654Z" fill="#fff">
                        </path>
                    </svg>