<?xml version="1.0" encoding="utf-8"?>
<!-- Generator: Adobe Illustrator 16.0.0, SVG Export Plug-In . SVG Version: 6.00 Build 0)  -->
<!DOCTYPE svg PUBLIC "-//W3C//DTD SVG 1.1//EN" "http://www.w3.org/Graphics/SVG/1.1/DTD/svg11.dtd">
<svg version="1.1" id="Layer_1" xmlns="http://www.w3.org/2000/svg" xmlns:xlink="http://www.w3.org/1999/xlink" x="0px" y="0px"
	 width="520.95px" height="84.852px" viewBox="0 0 520.95 84.852" enable-background="new 0 0 520.95 84.852" xml:space="preserve">
<g>
	<g>
		<g>
			<path fill="#4D40FF" d="M118.08,19.76c9,0,14.086,5.282,14.086,12.456c0,4.761-2.869,8.608-6.717,9.912
				c4.5,1.108,8.152,5.218,8.152,10.957c0,7.5-5.609,12.913-14.282,12.913h-17.87V19.76H118.08z M116.71,38.867
				c4.108,0,6.586-2.283,6.586-5.804c0-3.522-2.282-5.739-6.652-5.739h-6.326v11.543H116.71z M117.624,58.498
				c4.369,0,6.978-2.282,6.978-6c0-3.652-2.348-6.196-6.847-6.196h-7.435v12.196H117.624z"/>
			<path fill="#4D40FF" d="M160.016,42.52c-0.979-0.195-1.826-0.261-2.608-0.261c-4.435,0-8.283,2.152-8.283,9.064v14.675h-8.674
				V33.911h8.413v4.762c1.957-4.24,6.392-5.022,9.13-5.022c0.718,0,1.37,0.064,2.022,0.13V42.52z"/>
			<path fill="#4D40FF" d="M197.061,49.954c0,9.849-7.239,17.021-16.826,17.021c-9.586,0-16.826-7.173-16.826-17.021
				c0-9.912,7.239-17.022,16.826-17.022C189.821,32.932,197.061,40.042,197.061,49.954z M188.387,49.954
				c0-6.064-3.913-9.13-8.152-9.13c-4.239,0-8.152,3.065-8.152,9.13c0,6,3.913,9.13,8.152,9.13
				C184.474,59.084,188.387,56.019,188.387,49.954z"/>
			<path fill="#4D40FF" d="M222.171,47.41l13.109,18.588h-10.63l-8.478-12.262l-3.587,3.783v8.479h-8.674V18.78h8.674v27.065
				l11.087-11.935h11.347L222.171,47.41z"/>
			<path fill="#4D40FF" d="M267.696,56.802c-1.63,5.544-6.718,10.174-14.608,10.174c-8.805,0-16.565-6.325-16.565-17.152
				c0-10.238,7.565-16.892,15.783-16.892c9.912,0,15.848,6.327,15.848,16.631c0,1.239-0.13,2.544-0.13,2.675h-22.957
				c0.195,4.239,3.782,7.305,8.087,7.305c4.042,0,6.26-2.022,7.303-4.893L267.696,56.802z M259.609,46.302
				c-0.13-3.194-2.217-6.325-7.173-6.325c-4.5,0-6.978,3.392-7.174,6.325H259.609z"/>
			<path fill="#4D40FF" d="M294.568,42.52c-0.979-0.195-1.826-0.261-2.608-0.261c-4.435,0-8.283,2.152-8.283,9.064v14.675h-8.674
				V33.911h8.413v4.762c1.956-4.24,6.391-5.022,9.131-5.022c0.717,0,1.369,0.064,2.021,0.13V42.52z"/>
			<path fill="#4D40FF" d="M351.831,65.998l-0.587-5.283c-2.087,3.13-6.652,6.261-13.631,6.261c-12.457,0-23.086-9.13-23.086-24.064
				c0-14.936,11.152-24.131,23.674-24.131c12.129,0,18.847,7.109,21.13,14.218l-8.608,3.064c-1.175-4.107-5.021-8.869-12.521-8.869
				c-6.979,0-14.544,4.762-14.544,15.718c0,10.435,6.848,15.848,14.608,15.848c8.544,0,11.87-5.739,12.392-9h-14.609v-7.826h23.087
				v24.065H351.831z"/>
			<path fill="#4D40FF" d="M396.311,56.802c-1.63,5.544-6.718,10.174-14.608,10.174c-8.805,0-16.565-6.325-16.565-17.152
				c0-10.238,7.565-16.892,15.783-16.892c9.912,0,15.848,6.327,15.848,16.631c0,1.239-0.13,2.544-0.13,2.675h-22.957
				c0.195,4.239,3.782,7.305,8.087,7.305c4.043,0,6.261-2.022,7.304-4.893L396.311,56.802z M388.224,46.302
				c-0.13-3.194-2.217-6.325-7.173-6.325c-4.501,0-6.979,3.392-7.175,6.325H388.224z"/>
			<path fill="#4D40FF" d="M412.292,65.998h-8.674V33.911h8.413v3.979c1.956-3.326,5.805-4.826,9.261-4.826
				c7.956,0,11.608,5.674,11.608,12.717v20.218h-8.673V47.281c0-3.587-1.762-6.392-5.936-6.392c-3.783,0-6,2.934-6,6.652V65.998z"/>
			<path fill="#4D40FF" d="M446.012,17.998c2.999,0,5.347,2.412,5.347,5.413c0,2.869-2.348,5.282-5.347,5.282
				c-2.936,0-5.349-2.413-5.349-5.282C440.664,20.41,443.077,17.998,446.012,17.998z M441.708,65.998V33.911h8.673v32.087H441.708z"
				/>
			<path fill="#4D40FF" d="M480.382,62.541c-1.762,3-5.479,4.305-8.87,4.305c-7.761,0-12.195-5.674-12.195-12.652V33.911h8.674
				v18.521c0,3.587,1.826,6.457,5.87,6.457c3.848,0,6.064-2.608,6.064-6.325V33.911h8.674v26.281c0,2.479,0.195,4.696,0.326,5.806
				h-8.282C480.512,65.346,480.382,63.845,480.382,62.541z"/>
			<path fill="#4D40FF" d="M502.558,55.433c0.196,2.543,2.087,4.892,5.87,4.892c2.869,0,4.238-1.501,4.238-3.195
				c0-1.436-0.979-2.608-3.456-3.131l-4.238-0.979c-6.196-1.37-9.001-5.087-9.001-9.587c0-5.739,5.087-10.501,12-10.501
				c9.13,0,12.195,5.806,12.587,9.262l-7.238,1.63c-0.262-1.891-1.632-4.303-5.283-4.303c-2.282,0-4.109,1.369-4.109,3.194
				c0,1.565,1.175,2.544,2.936,2.87l4.564,0.978c6.327,1.306,9.522,5.153,9.522,9.849c0,5.217-4.044,10.564-12.457,10.564
				c-9.651,0-12.978-6.261-13.369-9.913L502.558,55.433z"/>
		</g>
	</g>
	<g>
		<path fill="#4D40FF" d="M80.603,55.229c-0.015,14.049-11.415,25.427-25.464,25.412c-2.824-0.002-5.628-0.477-8.297-1.4
			c1.285-0.934,2.492-1.971,3.611-3.097c3.188-3.177,5.606-7.043,7.068-11.302c3.897-0.257,6.994-3.375,7.222-7.275
			c5.78-1.999,10.802-5.734,14.38-10.697c0.939,2.688,1.418,5.515,1.417,8.359 M29.493,80.649L29.493,80.649
			C15.443,80.607,4.089,69.185,4.131,55.134c0.009-2.809,0.483-5.6,1.403-8.255c0.935,1.285,1.97,2.492,3.097,3.611
			c3.188,3.204,7.07,5.632,11.347,7.095c0.25,3.881,3.342,6.972,7.221,7.223c1.461,4.258,3.88,8.123,7.069,11.302
			c1.12,1.126,2.327,2.161,3.611,3.097c-2.686,0.929-5.509,1.401-8.351,1.398 M4.145,29.594C4.159,15.544,15.56,4.167,29.609,4.182
			c2.824,0.003,5.628,0.476,8.296,1.4c-1.283,0.935-2.49,1.97-3.61,3.096c-3.198,3.173-5.625,7.036-7.096,11.293
			c-3.879,0.25-6.971,3.342-7.221,7.221c-4.258,1.462-8.124,3.881-11.302,7.068c-1.125,1.121-2.161,2.328-3.096,3.611
			c-0.93-2.686-1.402-5.508-1.4-8.351 M33.22,62.514c0.946-0.946,1.631-2.12,1.986-3.411h14.443c0.571,2.06,1.965,3.794,3.855,4.794
			c-2.044,5.55-5.954,10.219-11.058,13.206c-5.104-2.989-9.013-7.658-11.059-13.206c0.688-0.364,1.318-0.831,1.868-1.383
			 M51.572,22.227c-0.946,0.946-1.63,2.123-1.986,3.413H35.143c-0.57-2.061-1.965-3.794-3.854-4.793
			c1.272-3.469,3.287-6.618,5.904-9.226c1.542-1.541,3.274-2.879,5.154-3.981c1.881,1.103,3.613,2.44,5.155,3.981
			c2.617,2.606,4.632,5.756,5.903,9.226c-0.689,0.363-1.319,0.828-1.869,1.38 M35.143,55.013c-0.722-2.635-2.781-4.692-5.416-5.415
			V35.153c2.635-0.722,4.694-2.779,5.416-5.415h14.443c0.724,2.634,2.782,4.692,5.416,5.415v14.444
			c-2.634,0.723-4.693,2.78-5.416,5.415H35.143z M11.583,47.566c-1.542-1.542-2.88-3.273-3.981-5.155
			c2.989-5.104,7.657-9.012,13.206-11.058c0.999,1.891,2.733,3.285,4.793,3.854v14.443c-1.29,0.355-2.465,1.04-3.412,1.985
			c-0.551,0.552-1.017,1.181-1.382,1.869c-3.47-1.271-6.619-3.284-9.225-5.904 M63.939,53.496c-0.998-1.884-2.729-3.274-4.785-3.845
			V35.208c2.056-0.569,3.787-1.961,4.785-3.846c5.542,2.047,10.202,5.952,13.188,11.049c-2.986,5.099-7.647,9.003-13.188,11.05
			 M55.184,4.182c14.029-0.005,25.406,11.365,25.412,25.393c0,2.854-0.479,5.685-1.418,8.378c-3.578-4.961-8.6-8.696-14.38-10.696
			c-0.228-3.899-3.323-7.02-7.221-7.276c-1.461-4.257-3.879-8.123-7.068-11.302c-1.119-1.127-2.326-2.162-3.61-3.096
			c2.686-0.931,5.508-1.402,8.35-1.4 M84.837,29.603C84.833,13.25,71.575-0.004,55.222,0c-4.435,0.001-8.813,0.999-12.812,2.918
			C27.663-4.147,9.98,2.079,2.914,16.825c-3.876,8.092-3.876,17.504,0.003,25.596C-4.153,57.165,2.069,74.85,16.814,81.92
			c8.091,3.88,17.504,3.88,25.596,0.003c14.728,7.081,32.409,0.881,39.49-13.848c3.897-8.107,3.896-17.548-0.007-25.654
			c1.93-3.997,2.93-8.38,2.925-12.818"/>
	</g>
</g>
</svg>
