<svg width="640" height="360" viewBox="0 0 640 360" fill="none" xmlns="http://www.w3.org/2000/svg">
<path d="M244.927 160.001C242.852 159.925 240.796 160.455 238.958 161.538C237.12 162.621 235.563 164.221 234.441 166.181C231.928 170.301 230.671 175.98 230.671 183.217C230.671 198.261 235.772 205.783 245.974 205.783C249.008 205.79 252.027 205.302 254.936 204.335C257.893 203.363 260.803 202.221 263.655 200.914V218.782C257.421 221.765 250.697 223.241 243.922 223.115C233.408 223.115 225.347 219.694 219.738 212.853C214.129 206.011 211.324 196.129 211.324 183.206C211.181 175.836 212.573 168.531 215.389 161.871C217.939 155.937 222.026 151.005 227.115 147.72C232.616 144.307 238.827 142.599 245.11 142.772C252.586 142.757 259.968 144.64 266.703 148.279L260.931 164.916C258.425 163.591 255.846 162.449 253.209 161.495C250.535 160.515 247.74 160.011 244.927 160.001Z" fill="#2C2C2C"/>
<path d="M244.927 160.001C242.852 159.925 240.796 160.455 238.958 161.538C237.12 162.621 235.563 164.221 234.441 166.181C231.928 170.301 230.671 175.98 230.671 183.217C230.671 198.261 235.772 205.783 245.974 205.783C249.008 205.79 252.027 205.302 254.936 204.335C257.893 203.363 260.803 202.221 263.655 200.914V218.782C257.421 221.765 250.697 223.241 243.922 223.115C233.408 223.115 225.347 219.694 219.738 212.853C214.129 206.011 211.324 196.129 211.324 183.206C211.181 175.836 212.573 168.531 215.389 161.871C217.939 155.937 222.026 151.005 227.115 147.72C232.616 144.307 238.827 142.599 245.11 142.772C252.586 142.757 259.968 144.64 266.703 148.279L260.931 164.916C258.425 163.591 255.846 162.449 253.209 161.495C250.535 160.515 247.74 160.011 244.927 160.001Z" stroke="black"/>
<path d="M341.584 182.778C341.584 195.936 338.708 205.936 332.957 212.778C327.206 219.62 318.785 223.04 307.696 223.04C296.769 223.04 288.39 219.601 282.557 212.721C276.725 205.841 273.809 195.822 273.809 182.663C273.809 169.649 276.708 159.71 282.506 152.846C288.305 145.981 296.732 142.56 307.788 142.583C318.877 142.583 327.28 146.004 332.997 152.846C338.715 159.687 341.577 169.665 341.584 182.778ZM293.643 182.778C293.643 197.898 298.331 205.457 307.706 205.457C312.448 205.457 315.984 203.622 318.314 199.95C320.645 196.278 321.796 190.554 321.769 182.778C321.769 174.971 320.601 169.205 318.264 165.48C315.927 161.755 312.438 159.892 307.798 159.892C298.361 159.885 293.643 167.513 293.643 182.778Z" fill="#2C2C2C"/>
<path d="M341.584 182.778C341.584 195.936 338.708 205.936 332.957 212.778C327.206 219.62 318.785 223.04 307.696 223.04C296.769 223.04 288.39 219.601 282.557 212.721C276.725 205.841 273.809 195.822 273.809 182.663C273.809 169.649 276.708 159.71 282.506 152.846C288.305 145.981 296.732 142.56 307.788 142.583C318.877 142.583 327.28 146.004 332.997 152.846C338.715 159.687 341.577 169.665 341.584 182.778ZM293.643 182.778C293.643 197.898 298.331 205.457 307.706 205.457C312.448 205.457 315.984 203.622 318.314 199.95C320.645 196.278 321.796 190.554 321.769 182.778C321.769 174.971 320.601 169.205 318.264 165.48C315.927 161.755 312.438 159.892 307.798 159.892C298.361 159.885 293.643 167.513 293.643 182.778Z" stroke="black"/>
<path d="M409.693 181.226C409.693 194.279 406.492 204.332 400.09 211.386C393.689 218.441 384.689 221.972 373.092 221.98H350.555V143.803H374.667C385.851 143.803 394.485 147.011 400.568 153.427C406.651 159.843 409.693 169.109 409.693 181.226ZM390.153 181.979C390.153 174.81 388.889 169.489 386.363 166.015C383.836 162.541 379.998 160.812 374.85 160.827H369.373V204.625H373.59C379.307 204.625 383.501 202.762 386.17 199.037C388.839 195.312 390.166 189.622 390.153 181.967V181.979Z" fill="#2C2C2C"/>
<path d="M409.693 181.226C409.693 194.279 406.492 204.332 400.09 211.386C393.689 218.441 384.689 221.972 373.092 221.98H350.555V143.803H374.667C385.851 143.803 394.485 147.011 400.568 153.427C406.651 159.843 409.693 169.109 409.693 181.226ZM390.153 181.979C390.153 174.81 388.889 169.489 386.363 166.015C383.836 162.541 379.998 160.812 374.85 160.827H369.373V204.625H373.59C379.307 204.625 383.501 202.762 386.17 199.037C388.839 195.312 390.166 189.622 390.153 181.967V181.979Z" stroke="black"/>
<path d="M460.023 221.98H418.656V143.803H460.023V160.759H437.485V173.062H458.356V190.018H437.485V204.784H460.023V221.98Z" fill="#2C2C2C"/>
<path d="M460.023 221.98H418.656V143.803H460.023V160.759H437.485V173.062H458.356V190.018H437.485V204.784H460.023V221.98Z" stroke="black"/>
<path d="M517.775 198.228C517.844 202.806 516.698 207.303 514.483 211.147C512.148 215.041 508.854 218.088 505.002 219.916C500.408 222.104 495.451 223.169 490.462 223.04C486.546 223.097 482.635 222.715 478.786 221.9C475.39 221.073 472.094 219.79 468.971 218.08V199.254C472.532 201.309 476.279 202.93 480.148 204.089C483.626 205.183 487.216 205.766 490.827 205.822C493.625 205.822 495.674 205.279 496.975 204.192C497.583 203.726 498.079 203.1 498.419 202.368C498.759 201.636 498.933 200.821 498.926 199.995C498.944 198.99 498.669 198.005 498.143 197.19C497.44 196.214 496.582 195.391 495.613 194.762C494.455 193.941 491.366 192.264 486.346 189.733C482.686 188.009 479.248 185.742 476.124 182.994C473.94 180.968 472.202 178.405 471.044 175.503C469.887 172.332 469.326 168.927 469.398 165.502C469.398 158.303 471.731 152.69 476.399 148.661C481.066 144.632 487.484 142.617 495.654 142.617C503.281 142.718 510.803 144.63 517.724 148.227L511.953 164.545C505.443 161.192 499.82 159.516 495.085 159.516C492.639 159.516 490.861 159.999 489.75 160.964C489.236 161.366 488.816 161.902 488.526 162.525C488.236 163.148 488.084 163.841 488.084 164.545C488.119 165.371 488.33 166.176 488.7 166.893C489.069 167.609 489.586 168.215 490.208 168.661C491.623 169.87 495.461 172.082 501.72 175.297C507.722 178.338 511.892 181.592 514.229 185.058C516.683 188.883 517.931 193.518 517.775 198.228Z" fill="#03CCAB"/>
<path d="M517.775 198.228C517.844 202.806 516.698 207.303 514.483 211.147C512.148 215.041 508.854 218.088 505.002 219.916C500.408 222.104 495.451 223.169 490.462 223.04C486.546 223.097 482.635 222.715 478.786 221.9C475.39 221.073 472.094 219.79 468.971 218.08V199.254C472.532 201.309 476.279 202.93 480.148 204.089C483.626 205.183 487.216 205.766 490.827 205.822C493.625 205.822 495.674 205.279 496.975 204.192C497.583 203.726 498.079 203.1 498.419 202.368C498.759 201.636 498.933 200.821 498.926 199.995C498.944 198.99 498.669 198.005 498.143 197.19C497.44 196.214 496.582 195.391 495.613 194.762C494.455 193.941 491.366 192.264 486.346 189.733C482.686 188.009 479.248 185.742 476.124 182.994C473.94 180.968 472.202 178.405 471.044 175.503C469.887 172.332 469.326 168.927 469.398 165.502C469.398 158.303 471.731 152.69 476.399 148.661C481.066 144.632 487.484 142.617 495.654 142.617C503.281 142.718 510.803 144.63 517.724 148.227L511.953 164.545C505.443 161.192 499.82 159.516 495.085 159.516C492.639 159.516 490.861 159.999 489.75 160.964C489.236 161.366 488.816 161.902 488.526 162.525C488.236 163.148 488.084 163.841 488.084 164.545C488.119 165.371 488.33 166.176 488.7 166.893C489.069 167.609 489.586 168.215 490.208 168.661C491.623 169.87 495.461 172.082 501.72 175.297C507.722 178.338 511.892 181.592 514.229 185.058C516.683 188.883 517.931 193.518 517.775 198.228Z" stroke="black"/>
<path d="M601.08 221.809V143.621H620V221.809H601.08Z" fill="#03CCAB"/>
<path d="M601.08 221.809V143.621H620V221.809H601.08Z" stroke="black"/>
<path d="M569.023 143.462H543.904L521.174 221.969H541.862L545.388 207.317H568.027L571.461 221.969H592.048L569.023 143.462ZM554.33 193.143C558.303 186.222 557.083 172.368 557.083 172.368C556.951 177.989 551.81 185.926 549.412 189.335C547.278 186.507 544.626 181.501 548.06 176.496C550.829 172.475 552.875 169.538 554.413 167.33C557.672 162.652 558.648 161.252 559.38 159.756C559.502 159.505 559.857 159.642 559.969 159.893C562.708 166.261 564.296 173.175 564.643 180.235C565.131 190.555 556.707 192.756 554.33 193.155V193.143Z" fill="#03CCAB"/>
<path d="M569.023 143.462H543.904L521.174 221.969H541.862L545.388 207.317H568.027L571.461 221.969H592.048L569.023 143.462ZM554.33 193.143C558.303 186.222 557.083 172.368 557.083 172.368C556.951 177.989 551.81 185.926 549.412 189.335C547.278 186.507 544.626 181.501 548.06 176.496C550.829 172.475 552.875 169.538 554.413 167.33C557.672 162.652 558.648 161.252 559.38 159.756C559.502 159.505 559.857 159.642 559.969 159.893C562.708 166.261 564.296 173.175 564.643 180.235C565.131 190.555 556.707 192.756 554.33 193.155V193.143Z" stroke="black"/>
<path d="M182.41 131.777L105.688 87.6831C104.912 87.2356 104.031 87 103.134 87C102.238 87 101.357 87.2356 100.581 87.6831L23.8584 131.777C23.0824 132.223 22.4379 132.865 21.9896 133.637C21.5414 134.41 21.3052 135.286 21.3047 136.179V177.308C23.3819 176.572 25.6117 176.368 27.7888 176.715C29.966 177.061 32.0205 177.948 33.7635 179.292C35.9415 181.049 37.416 183.525 37.9203 186.271C39.4662 193.876 37.0271 197.308 33.9811 199.783L39.1913 218.666L29.8817 232.235L39.0426 237.537L49.7493 221.927L44.7795 186.578L48.4668 181.208C45.6201 178.624 43.7794 175.123 43.2684 171.321C42.7574 167.519 43.6086 163.659 45.6727 160.421C48.0435 156.811 51.7401 154.271 55.97 153.344C60.1999 152.416 64.6263 153.176 68.3001 155.461C71.4711 157.474 73.8482 160.515 75.0308 164.07C76.2134 167.625 76.1292 171.477 74.7925 174.977C73.4557 178.478 70.9482 181.412 67.6923 183.287C64.4363 185.161 60.6311 185.86 56.9177 185.267L53.9518 189.589L57.2155 211.014L91.0419 161.698C88.6192 158.979 87.1772 155.533 86.9449 151.906C86.7125 148.278 87.7031 144.678 89.7594 141.675C92.1867 138.211 95.8559 135.808 100.011 134.959C104.165 134.11 108.489 134.882 112.089 137.114C115.393 139.211 117.831 142.42 118.959 146.157C120.087 149.894 119.83 153.91 118.235 157.473C116.64 161.037 113.812 163.912 110.267 165.575C106.722 167.238 102.696 167.577 98.9203 166.533L49.2798 239.247L73.8538 231.779L95.2216 200.627C92.9489 197.872 91.6446 194.452 91.5081 190.89C91.3716 187.328 92.4104 183.819 94.4658 180.9C96.9229 177.503 100.586 175.163 104.711 174.357C108.837 173.55 113.116 174.336 116.681 176.556C120.006 178.692 122.441 181.956 123.535 185.743C124.629 189.529 124.308 193.583 122.631 197.152C120.954 200.721 118.035 203.564 114.415 205.155C110.794 206.746 106.718 206.976 102.94 205.803L80.2092 238.951L55.0168 246.602L100.695 272.828C101.472 273.275 102.352 273.51 103.249 273.51C104.145 273.51 105.026 273.275 105.802 272.828L182.525 228.734C183.301 228.288 183.945 227.647 184.393 226.874C184.842 226.101 185.078 225.225 185.078 224.333V136.133C185.058 135.237 184.801 134.363 184.333 133.598C183.864 132.833 183.201 132.205 182.41 131.777Z" fill="#03CCAB"/>
<mask id="mask0" style="mask-type:alpha" maskUnits="userSpaceOnUse" x="20" y="103" width="141" height="157">
<path d="M160.322 149.965L79.367 259.704L20 230.92V149.965L100.955 103.191L160.322 149.965Z" fill="#C4C4C4"/>
</mask>
<g mask="url(#mask0)">
<path d="M182.41 131.777L105.688 87.6831C104.912 87.2356 104.031 87 103.134 87C102.238 87 101.357 87.2356 100.581 87.6831L23.8584 131.777C23.0824 132.223 22.4379 132.865 21.9896 133.637C21.5414 134.41 21.3052 135.286 21.3047 136.179V177.308C23.3819 176.572 25.6117 176.368 27.7888 176.715C29.966 177.061 32.0205 177.948 33.7635 179.292C35.9415 181.049 37.416 183.525 37.9203 186.271C39.4662 193.876 37.0271 197.308 33.9811 199.783L39.1913 218.666L29.8817 232.235L39.0426 237.537L49.7493 221.927L44.7795 186.578L48.4668 181.208C45.6201 178.624 43.7794 175.123 43.2684 171.321C42.7574 167.519 43.6086 163.659 45.6727 160.421C48.0435 156.811 51.7401 154.271 55.97 153.344C60.1999 152.416 64.6263 153.176 68.3001 155.461C71.4711 157.474 73.8482 160.515 75.0308 164.07C76.2134 167.625 76.1292 171.477 74.7925 174.977C73.4557 178.478 70.9482 181.412 67.6923 183.287C64.4363 185.161 60.6311 185.86 56.9177 185.267L53.9518 189.589L57.2155 211.014L91.0419 161.698C88.6192 158.979 87.1772 155.533 86.9449 151.906C86.7125 148.278 87.7031 144.678 89.7594 141.675C92.1867 138.211 95.8559 135.808 100.011 134.959C104.165 134.11 108.489 134.882 112.089 137.114C115.393 139.211 117.831 142.42 118.959 146.157C120.087 149.894 119.83 153.91 118.235 157.473C116.64 161.037 113.812 163.912 110.267 165.575C106.722 167.238 102.696 167.577 98.9203 166.533L49.2798 239.247L73.8538 231.779L95.2216 200.627C92.9489 197.872 91.6446 194.452 91.5081 190.89C91.3716 187.328 92.4104 183.819 94.4658 180.9C96.9229 177.503 100.586 175.163 104.711 174.357C108.837 173.55 113.116 174.336 116.681 176.556C120.006 178.692 122.441 181.956 123.535 185.743C124.629 189.529 124.308 193.583 122.631 197.152C120.954 200.721 118.035 203.564 114.415 205.155C110.794 206.746 106.718 206.976 102.94 205.803L80.2092 238.951L55.0168 246.602L100.695 272.828C101.472 273.275 102.352 273.51 103.249 273.51C104.145 273.51 105.026 273.275 105.802 272.828L182.525 228.734C183.301 228.288 183.945 227.647 184.393 226.874C184.842 226.101 185.078 225.225 185.078 224.333V136.133C185.058 135.237 184.801 134.363 184.333 133.598C183.864 132.833 183.201 132.205 182.41 131.777Z" fill="#03CCAB"/>
</g>
<path d="M22.5221 194.377C23.2736 194.894 24.1382 195.224 25.044 195.34C25.9498 195.457 26.8705 195.355 27.729 195.045C28.5875 194.735 29.359 194.225 29.9791 193.557C30.5992 192.889 31.0499 192.084 31.2936 191.207C31.5505 190.333 31.5887 189.409 31.4051 188.517C31.2214 187.625 30.8215 186.791 30.2401 186.087C29.7031 185.434 29.027 184.907 28.2606 184.545C27.4942 184.184 26.6566 183.996 25.8085 183.996C24.9604 183.996 24.1228 184.184 23.3564 184.545C22.59 184.907 21.914 185.434 21.377 186.087V193.351C21.7099 193.743 22.0951 194.089 22.5221 194.377Z" fill="#03CCAB"/>
<path d="M28.234 202.541C25.9375 202.975 23.5664 202.795 21.3633 202.017V224.354C21.3638 225.247 21.6 226.123 22.0482 226.896C22.4965 227.668 23.1409 228.31 23.9169 228.756L32.1618 216.737L28.234 202.541Z" fill="#03CCAB"/>
<path d="M107.911 155.519C108.9 154.555 109.55 153.3 109.767 151.939C109.984 150.578 109.756 149.184 109.116 147.963C108.476 146.742 107.458 145.758 106.214 145.156C104.969 144.555 103.563 144.369 102.203 144.624C100.844 144.88 99.6031 145.564 98.6643 146.576C97.7256 147.588 97.1386 148.874 96.9903 150.244C96.842 151.614 97.1401 152.995 97.8406 154.183C98.5411 155.371 99.6069 156.303 100.88 156.841C102.053 157.336 103.346 157.474 104.596 157.238C105.847 157.003 107.001 156.405 107.911 155.519Z" fill="#03CCAB"/>
<path d="M113.73 192.779C114.188 191.71 114.346 190.537 114.187 189.385C114.028 188.233 113.558 187.146 112.827 186.24C112.096 185.333 111.131 184.641 110.036 184.238C108.941 183.835 107.757 183.736 106.609 183.95C105.462 184.165 104.394 184.686 103.521 185.458C102.648 186.23 102.001 187.223 101.651 188.332C101.3 189.441 101.259 190.624 101.531 191.755C101.803 192.886 102.378 193.921 103.195 194.752C103.938 195.503 104.855 196.061 105.866 196.376C106.877 196.692 107.949 196.755 108.99 196.56C110.031 196.365 111.008 195.918 111.834 195.259C112.661 194.6 113.312 193.748 113.73 192.779Z" fill="#03CCAB"/>
<path d="M65.5346 171.731C65.9871 170.659 66.1388 169.485 65.9735 168.334C65.8083 167.183 65.3322 166.098 64.5961 165.196C63.8601 164.293 62.8918 163.607 61.7944 163.21C60.6971 162.812 59.512 162.719 58.3657 162.94C57.2194 163.161 56.1548 163.688 55.2858 164.465C54.4168 165.241 53.7758 166.238 53.4314 167.349C53.087 168.46 53.052 169.643 53.3302 170.773C53.6084 171.902 54.1894 172.935 55.0111 173.761C55.7583 174.508 56.6785 175.061 57.6908 175.37C58.703 175.68 59.7762 175.737 60.8158 175.537C61.8554 175.336 62.8295 174.884 63.6524 174.22C64.4753 173.557 65.1217 172.702 65.5346 171.731Z" fill="#03CCAB"/>
</svg>
