<svg width="2790" height="467" viewBox="0 0 2790 467" fill="none" xmlns="http://www.w3.org/2000/svg">
<path d="M385.563 303.941L149.959 26.6457C146.917 23.1822 145.505 19.5022 145.505 15.4976C145.505 11.06 147.135 7.38002 150.393 4.67417C153.544 1.96832 157.888 0.561279 163.428 0.561279H383.282C392.841 0.561279 400.553 4.02477 406.527 10.9517L522.428 143.538C525.47 147.543 527.099 152.738 527.316 159.232C527.534 165.726 525.904 170.922 522.428 174.926L409.46 301.668C406.527 305.24 402.508 307.296 397.511 308.054C392.515 308.812 388.604 307.405 385.563 303.941Z" fill="#FF5454"/>
<path d="M251.739 454.495L5.59863 170.489C2.12268 166.484 0.493328 161.289 0.710575 154.903C1.03644 148.409 2.88305 143.214 6.359 139.209L85.654 46.7772C89.673 42.3396 93.9094 40.0667 98.3629 40.0667C103.794 40.0667 108.356 42.3396 111.832 46.7772L359.493 337.494C362.426 340.957 363.947 344.637 363.947 348.317C363.947 352.105 362.535 355.677 359.493 359.141L275.745 454.495C272.703 458.499 268.901 460.448 264.122 460.448C259.343 460.448 255.215 458.499 251.739 454.495Z" fill="#FF5454"/>
<g clip-path="url(#clip0_7656_87557)">
<path d="M2600.11 383.599C2581.68 383.599 2565.42 379.154 2551.22 370.155C2537.02 361.157 2525.85 348.905 2517.61 333.185C2509.37 317.464 2505.25 299.684 2505.25 279.844C2505.25 259.895 2509.37 242.223 2517.61 226.828C2525.85 211.433 2537.02 199.507 2551.22 190.942C2565.42 182.485 2581.68 178.257 2600.11 178.257C2627.44 178.257 2650.2 187.689 2668.42 206.662C2686.63 225.635 2695.63 249.921 2695.63 279.844C2695.63 299.25 2691.51 316.922 2683.27 332.86C2675.03 348.797 2663.65 361.265 2648.9 370.155C2634.37 379.045 2618 383.599 2600.11 383.599ZM2208.95 464.912C2241.25 464.912 2270.74 457.648 2297.41 443.228C2324.08 428.809 2345.01 409.185 2360.51 384.249C2363.55 379.804 2362.25 376.01 2356.83 373.082L2295.57 340.991C2290.58 338.497 2286.57 339.798 2283.64 344.677C2277.68 356.169 2267.82 365.385 2254.16 372.324C2240.49 379.262 2225.86 382.732 2210.46 382.732C2183.14 382.732 2160.59 373.082 2142.92 353.567C2125.25 334.161 2116.47 309.225 2116.47 278.868C2116.47 247.969 2125.46 223.25 2143.35 204.602C2161.24 185.955 2183.68 176.631 2210.57 176.631C2229 176.631 2245.27 180.967 2259.47 189.749C2273.67 198.423 2284.08 209.915 2290.8 224.117C2297.52 238.32 2299.37 253.607 2296.44 270.086L2300.12 248.403H2103.78L2114.19 312.586H2374.72C2380.14 312.586 2383.39 309.875 2384.36 304.346C2384.91 295.347 2385.34 286.457 2385.88 277.459C2385.88 244.174 2378.51 213.384 2363.87 185.304C2349.24 157.224 2328.53 134.998 2301.86 118.844C2275.19 102.69 2244.29 94.5589 2208.95 94.5589C2174.14 94.5589 2142.49 102.799 2114.08 119.17C2085.68 135.649 2063.56 157.983 2047.62 186.388C2031.68 214.793 2023.77 245.909 2023.77 279.735C2023.77 315.079 2031.58 346.954 2047.3 375.251C2063.02 403.656 2084.92 425.665 2113 441.277C2141.08 457.106 2173.06 464.912 2208.95 464.912ZM1775.93 465.671C1794.79 465.671 1812.36 462.418 1828.51 455.913C1844.66 449.408 1857.78 441.494 1867.76 432.061C1877.73 422.629 1883.91 413.847 1886.4 405.933V448.541C1886.4 451.034 1887.27 453.203 1889.01 454.937C1890.74 456.672 1892.91 457.539 1895.4 457.539H1971.51C1974.01 457.539 1976.07 456.672 1977.91 454.937C1979.64 453.203 1980.51 451.034 1980.51 448.541V9.5599C1980.51 7.06631 1979.64 5.00638 1977.91 3.16329C1976.17 1.42862 1974.01 0.561279 1971.51 0.561279H1895.4C1892.91 0.561279 1890.74 1.42862 1889.01 3.16329C1887.27 4.89796 1886.4 7.06631 1886.4 9.5599V149.093C1883.91 143.672 1877.51 136.516 1867.32 127.843C1857.13 119.17 1844.23 111.472 1828.51 104.75C1812.79 98.0283 1795.55 94.6673 1776.58 94.6673C1744.27 94.6673 1715 102.799 1688.87 118.953C1662.74 135.107 1642.03 157.332 1626.85 185.412C1611.68 213.492 1604.09 245.042 1604.09 279.844C1604.09 314.646 1611.68 346.303 1626.85 374.709C1642.03 403.114 1662.85 425.34 1689.19 441.494C1715.65 457.539 1744.6 465.671 1775.93 465.671ZM1790.89 383.599C1773 383.599 1756.74 379.154 1742.32 370.155C1727.9 361.157 1716.52 348.905 1708.38 333.185C1700.14 317.464 1696.02 299.684 1696.02 279.844C1696.02 259.895 1700.14 242.223 1708.38 226.828C1716.62 211.433 1727.9 199.507 1742.32 190.942C1756.74 182.485 1772.89 178.257 1790.89 178.257C1818.21 178.257 1840.98 187.689 1859.19 206.662C1877.41 225.635 1886.4 249.921 1886.4 279.844C1886.4 299.25 1882.28 316.922 1874.05 332.86C1865.81 348.797 1854.42 361.265 1839.68 370.155C1825.04 379.045 1808.78 383.599 1790.89 383.599ZM1477.24 457.431H1553.35C1555.84 457.431 1557.9 456.564 1559.74 454.829C1561.48 453.094 1562.35 450.926 1562.35 448.432V9.5599C1562.35 7.06631 1561.48 5.00638 1559.74 3.16329C1558.01 1.42862 1555.84 0.561279 1553.35 0.561279H1477.24C1474.74 0.561279 1472.68 1.42862 1470.84 3.16329C1469.11 4.89796 1468.24 7.06631 1468.24 9.5599V448.541C1468.24 451.034 1469.11 453.203 1470.84 454.937C1472.68 456.564 1474.74 457.431 1477.24 457.431ZM1236.88 382.081C1209.01 382.081 1185.7 372.757 1167.06 354.109C1148.41 335.462 1139.09 310.959 1139.09 280.603C1139.09 250.246 1148.41 225.635 1167.06 206.662C1185.7 187.798 1209.01 178.257 1236.88 178.257C1264.74 178.257 1288.05 187.689 1306.7 206.662C1325.35 225.635 1334.67 250.246 1334.67 280.603C1334.67 310.959 1325.45 335.462 1307.02 354.109C1288.7 372.757 1265.28 382.081 1236.88 382.081ZM1236.88 465.671C1273.2 465.671 1305.83 457.431 1334.67 441.06C1363.51 424.581 1386.06 402.355 1402.21 374.275C1418.37 346.195 1426.5 314.971 1426.5 280.603C1426.5 246.234 1418.37 214.902 1402.21 186.497C1386.06 158.091 1363.51 135.757 1334.67 119.278C1305.83 102.907 1273.2 94.6673 1236.88 94.6673C1200.56 94.6673 1167.92 102.907 1139.09 119.278C1110.25 135.757 1087.7 158.091 1071.54 186.497C1055.39 214.902 1047.26 246.234 1047.26 280.603C1047.26 314.971 1055.39 346.195 1071.54 374.275C1087.7 402.355 1110.25 424.689 1139.09 441.06C1167.92 457.431 1200.56 465.671 1236.88 465.671ZM679.939 457.431H756.048C758.541 457.431 760.601 456.564 762.444 454.829C764.179 453.094 765.046 450.926 765.046 448.432V267.051C765.046 240.163 772.202 218.805 786.73 202.868C801.149 186.93 819.797 179.016 842.673 179.016C864.031 179.016 880.944 185.955 893.412 199.94C905.88 213.926 912.06 233.55 912.06 258.919V448.541C912.06 451.034 912.927 453.203 914.662 454.937C916.397 456.672 918.457 457.539 921.059 457.539H997.167C999.661 457.539 1001.72 456.672 1003.56 454.937C1005.3 453.203 1006.17 451.034 1006.17 448.541V243.958C1006.17 205.686 998.794 175.438 984.157 153.213C969.521 131.095 952.066 115.809 931.9 107.352C911.735 98.8956 892.003 94.6673 872.596 94.6673C848.744 94.6673 826.736 99.3293 806.57 108.436C786.405 117.652 772.636 129.469 765.155 143.889V9.5599C765.155 7.06631 764.287 5.00638 762.553 3.16329C760.818 1.42862 758.65 0.561279 756.156 0.561279H680.047C677.554 0.561279 675.494 1.42862 673.651 3.16329C671.916 4.89796 671.049 7.06631 671.049 9.5599V448.541C671.049 451.034 671.916 453.203 673.651 454.937C675.385 456.564 677.445 457.431 679.939 457.431ZM2585.15 465.671C2604.02 465.671 2621.58 462.418 2637.74 455.913C2653.89 449.408 2667.01 441.494 2676.98 432.061C2686.96 422.629 2693.14 413.847 2695.63 405.933V448.541C2695.63 451.034 2696.5 453.203 2698.23 454.937C2699.97 456.672 2702.03 457.539 2704.63 457.539H2780.74C2783.23 457.539 2785.29 456.672 2787.13 454.937C2788.87 453.203 2789.74 451.034 2789.74 448.541V9.5599C2789.74 7.06631 2788.87 5.00638 2787.13 3.16329C2785.4 1.42862 2783.23 0.561279 2780.74 0.561279H2704.63C2702.14 0.561279 2699.97 1.42862 2698.23 3.16329C2696.5 4.89796 2695.63 7.06631 2695.63 9.5599V149.093C2693.14 143.672 2686.74 136.516 2676.55 127.843C2666.36 119.17 2653.46 111.472 2637.74 104.75C2622.01 98.0283 2604.78 94.6673 2585.8 94.6673C2553.5 94.6673 2524.22 102.799 2498.09 118.953C2471.97 135.107 2451.26 157.332 2436.19 185.412C2421.01 213.492 2413.42 245.042 2413.42 279.844C2413.42 314.646 2421.01 346.303 2436.19 374.709C2451.37 403.114 2472.18 425.34 2498.53 441.494C2524.98 457.539 2553.82 465.671 2585.15 465.671Z" fill="#111827"/>
</g>
<defs>
<clipPath id="clip0_7656_87557">
<rect width="2118.63" height="465.449" fill="white" transform="translate(671.051 0.561279)"/>
</clipPath>
</defs>
</svg>
