<svg id="Ebene_1" data-name="Ebene 1" xmlns="http://www.w3.org/2000/svg" viewBox="0 0 115 115">
    <defs><style>.cls-5{fill:#0050aa}.cls-3{fill:#fff000}.cls-3,.cls-4,.cls-5{fill-rule:evenodd}.cls-4{fill:#e60a14}</style></defs>
    <path fill="#0050aa" d="M1 1h113v113H1z"/>
    <path d="M114 1v113H1V1h113m1-1H0v115h115V0z" fill="#fff"/>
    <path class="cls-3" d="M57.5 7.38a50.12 50.12 0 1 0 50.12 50.14A50.14 50.14 0 0 0 57.5 7.38z"/>
    <path class="cls-4" d="M54.39 58.91l-8.85-8.85-10.2 10.22v3.43l2.57-2.58 7.12 7.14-2.63 2.62 1.71 1.72 14.24-14.26v-3.42l-3.96 3.98z"/>
    <path class="cls-5" d="M13.08 48.2h15.76v3.4h-2.63v11l9.13-5.08v9.31H13.08v-3.42h2.64V51.6h-2.64v-3.4zM79.53 48.2v3.4h2.64v11.81h-2.64v3.42h22.28v-9.31l-9.14 5.08v-11h2.64v-3.4H79.53z"/>
    <path class="cls-4" d="M44.24 37.61a5.61 5.61 0 1 1-5.61 5.59 5.59 5.59 0 0 1 5.61-5.59z"/>
    <path class="cls-4" d="M57.5 4A53.51 53.51 0 1 0 111 57.52 53.53 53.53 0 0 0 57.5 4zm0 103.63a50.12 50.12 0 1 1 50.12-50.1 50.13 50.13 0 0 1-50.12 50.09z"/>
    <path class="cls-5" d="M70.75 48.2h-15v3.4h2.63v11.81h-2.66v3.42h15c11.14 0 11.28-18.63.03-18.63z"/>
    <path class="cls-3" d="M68.64 61h-.75v-7h.63c3.29 0 3.29 7 .12 7z"/>
</svg>