<svg width="1156" height="209" viewBox="0 0 1156 209" fill="none" xmlns="http://www.w3.org/2000/svg">
<path d="M341.703 74.0137V68.0167C341.703 65.9808 342.392 64.3151 343.769 63.0195C345.147 61.724 346.754 61.0762 348.591 61.0762H379.728C381.749 61.0762 383.402 61.724 384.688 63.0195C385.974 64.3151 386.617 65.9808 386.617 68.0167V199.31C386.617 201.16 385.974 202.78 384.688 204.168C383.402 205.556 381.749 206.25 379.728 206.25H348.591C346.754 206.25 345.147 205.556 343.769 204.168C342.392 202.78 341.703 201.16 341.703 199.31V192.146C331.63 202.858 322.539 208.214 303.702 208.214C284.694 208.214 270.099 202.76 259.916 191.853C249.733 180.945 244.189 165.422 243.284 145.285C243.133 142.861 243.058 138.665 243.058 132.699C243.058 126.732 243.133 122.537 243.284 120.113C244.189 100.348 249.884 84.919 260.369 73.8247C270.853 62.7304 285.298 57.1833 303.702 57.1833C322.107 57.1833 331.04 62.7304 341.525 73.8247C341.584 73.8876 341.644 73.9506 341.703 74.0137ZM0.027832 140.26V68.0167C0.027832 65.9808 0.716686 64.3151 2.09441 63.0195C3.47214 61.724 5.07947 61.0762 6.91644 61.0762H38.8796C40.9002 61.0762 42.5535 61.724 43.8394 63.0195C45.1253 64.3151 45.7682 65.9808 45.7682 68.0167V77.4557C50.1769 72.0884 55.8714 67.554 62.8519 63.8524C69.8324 60.1508 77.7313 58.3 86.5487 58.3C106.755 58.3 120.624 66.2583 128.156 82.1752C132.565 75.1422 138.718 69.4048 146.617 64.9629C154.516 60.5209 162.966 58.3 171.967 58.3C187.031 58.3 199.292 63.4359 208.753 73.7079C218.213 83.9798 222.943 99.295 222.943 119.654V199.31C222.943 201.16 222.3 202.78 221.014 204.168C219.728 205.556 218.075 206.25 216.055 206.25H182.163C180.142 206.25 178.443 205.602 177.065 204.307C175.687 203.011 174.998 201.345 174.998 199.31V121.597C174.998 113.083 173.207 106.837 169.625 102.858C166.043 98.8786 161.221 96.889 155.159 96.889C149.465 96.889 144.826 98.8786 141.244 102.858C137.662 106.837 135.871 113.083 135.871 121.597V140.26C135.871 143.292 133.427 145.75 130.412 145.75H93.3854C90.3705 145.75 87.9265 143.292 87.9265 140.26V121.597C87.9265 113.083 86.0895 106.837 82.4156 102.858C78.7416 98.8786 73.9656 96.889 68.0873 96.889C62.3927 96.889 57.7085 98.8786 54.0345 102.858C50.3606 106.837 48.5236 112.991 48.5236 121.32V140.26C48.5236 143.292 46.0796 145.75 43.0647 145.75H5.48673C2.47186 145.75 0.027832 143.292 0.027832 140.26ZM311.943 172.974C319.531 172.974 325.175 170.596 328.876 165.842C332.578 161.087 334.706 153.769 335.261 143.886C335.446 142.022 335.539 138.293 335.539 132.699C335.539 127.105 335.446 123.376 335.261 121.511C334.706 111.815 332.578 104.544 328.876 99.6957C325.175 94.8478 319.531 92.4239 311.943 92.4239C304.355 92.4239 298.711 94.8478 295.01 99.6957C291.308 104.544 289.18 111.815 288.625 121.511L288.347 132.699L288.625 143.886C289.18 153.769 291.308 161.087 295.01 165.842C298.711 170.596 304.355 172.974 311.943 172.974ZM418.855 140.26V68.0167C418.855 65.9808 419.544 64.3151 420.922 63.0195C422.299 61.724 423.907 61.0762 425.744 61.0762H459.636C461.656 61.0762 463.31 61.724 464.596 63.0195C465.881 64.3151 466.524 65.9808 466.524 68.0167V78.5662C471.484 72.4585 477.868 67.554 485.675 63.8524C493.482 60.1508 502.437 58.3 512.54 58.3C523.011 58.3 532.333 60.706 540.508 65.5181C548.683 70.3302 555.112 77.4557 559.796 86.8948C564.48 96.3339 566.823 107.716 566.823 121.042V199.31C566.823 201.16 566.18 202.78 564.894 204.168C563.608 205.556 561.955 206.25 559.934 206.25H523.287C521.266 206.25 519.567 205.602 518.189 204.307C516.811 203.011 516.122 201.345 516.122 199.31V122.708C516.122 114.379 514.148 107.994 510.198 103.552C506.249 99.11 500.508 96.889 492.977 96.889C485.629 96.889 479.842 99.1563 475.617 103.691C471.392 108.225 469.28 114.564 469.28 122.708V140.26C469.28 143.292 466.836 145.75 463.821 145.75H424.314C421.299 145.75 418.855 143.292 418.855 140.26ZM618.9 206.25C616.88 206.25 615.181 205.602 613.803 204.307C612.425 203.011 611.736 201.345 611.736 199.31V98.8324H591.07C589.05 98.8324 587.351 98.1846 585.973 96.889C584.595 95.5935 583.906 93.9278 583.906 91.8919V68.0167C583.906 65.9808 584.595 64.3151 585.973 63.0195C587.351 61.724 589.05 61.0762 591.07 61.0762H611.736V52.7476C611.736 34.2396 617.063 20.8215 627.718 12.4929C638.372 4.16424 653.619 0 673.458 0H695.226C697.247 0 698.946 0.647771 700.324 1.94333C701.701 3.2389 702.39 4.90459 702.39 6.94048V30.8157C702.39 32.8516 701.701 34.5173 700.324 35.8129C698.946 37.1084 697.247 37.7562 695.226 37.7562H675.663C669.784 37.7562 665.605 39.098 663.125 41.7817C660.645 44.4653 659.405 48.5833 659.405 54.1357V61.0762H692.471C694.491 61.0762 696.191 61.724 697.568 63.0195C698.946 64.3151 699.635 65.9808 699.635 68.0167V91.8919C699.635 93.9278 698.946 95.5935 697.568 96.889C696.191 98.1846 694.491 98.8324 692.471 98.8324H659.405V199.31C659.405 201.16 658.762 202.78 657.477 204.168C656.191 205.556 654.537 206.25 652.517 206.25H618.9ZM716.443 140.26V68.2943C716.443 66.2584 717.086 64.5464 718.372 63.1583C719.658 61.7702 721.311 61.0762 723.332 61.0762H756.948C758.969 61.0762 760.668 61.7702 762.046 63.1583C763.423 64.5464 764.112 66.2584 764.112 68.2943V78.8438C769.256 73.1063 775.272 68.7107 782.16 65.6569C789.049 62.6031 796.718 61.0762 805.168 61.0762H817.568C819.588 61.0762 821.242 61.724 822.528 63.0195C823.813 64.3151 824.456 65.9808 824.456 68.0167V98.2771C824.456 100.128 823.813 101.747 822.528 103.135C821.242 104.524 819.588 105.218 817.568 105.218H789.738C782.39 105.218 776.741 107.253 772.792 111.325C768.842 115.397 766.868 121.134 766.868 128.538V140.26C766.868 143.292 764.424 145.75 761.409 145.75H721.902C718.887 145.75 716.443 143.292 716.443 140.26ZM908.757 207.664C886.346 207.664 868.712 201.603 855.853 189.48C842.994 177.357 836.381 159.729 836.014 136.594V127.988C836.748 105.963 843.545 88.7509 856.404 76.3505C869.263 63.9501 886.622 57.75 908.482 57.75C924.28 57.75 937.644 60.9426 948.573 67.3279C959.503 73.7131 967.678 82.5043 973.097 93.7017C978.516 104.899 981.225 117.623 981.225 131.874V138.815C981.225 140.851 980.537 142.563 979.159 143.951C977.781 145.339 976.082 146.033 974.061 146.033H886.714V147.699C886.898 156.027 888.826 162.736 892.5 167.826C896.174 172.916 901.409 175.46 908.206 175.46C912.615 175.46 916.151 174.581 918.815 172.823C921.478 171.065 924.004 168.798 926.392 166.021C928.046 164.171 929.377 163.014 930.388 162.551C931.398 162.088 933.005 161.857 935.21 161.857H971.306C972.959 161.857 974.383 162.366 975.577 163.384C976.771 164.402 977.368 165.651 977.368 167.132C977.368 171.944 974.658 177.589 969.239 184.067C963.82 190.544 955.921 196.097 945.543 200.724C935.164 205.351 922.902 207.664 908.757 207.664ZM930.525 117.716V117.16C930.525 108.277 928.597 101.382 924.739 96.4779C920.881 91.5732 915.462 89.121 908.482 89.121C901.501 89.121 896.128 91.5732 892.363 96.4779C888.597 101.382 886.714 108.277 886.714 117.16V117.716H930.525ZM1062.29 208.05C1044.47 208.05 1030.47 202.406 1020.27 191.116C1010.08 179.827 1004.61 163.726 1003.88 142.813L1003.6 133.097L1003.88 123.103C1004.61 102.93 1010.12 87.0602 1020.41 75.4932C1030.7 63.9262 1044.66 58.1428 1062.29 58.1428C1078.82 58.1428 1092.14 63.5098 1102.24 74.244V8.31517C1102.24 6.27938 1102.93 4.61375 1104.31 3.31825C1105.69 2.02274 1107.29 1.375 1109.13 1.375H1144.67C1146.69 1.375 1148.39 2.02274 1149.77 3.31825C1151.15 4.61375 1151.84 6.27938 1151.84 8.31517V198.334C1151.84 200.37 1151.15 202.036 1149.77 203.331C1148.39 204.627 1146.69 205.274 1144.67 205.274H1111.89C1110.05 205.274 1108.44 204.58 1107.06 203.192C1105.69 201.804 1105 200.185 1105 198.334V189.728C1095.08 201.943 1080.84 208.05 1062.29 208.05ZM1078.27 169.463C1086.17 169.463 1092.05 166.918 1095.91 161.829C1099.76 156.739 1101.88 150.308 1102.24 142.535C1102.61 137.353 1102.79 133.837 1102.79 131.986C1102.79 129.95 1102.61 126.527 1102.24 121.715C1101.88 114.497 1099.72 108.528 1095.77 103.809C1091.82 99.0898 1085.99 96.7301 1078.27 96.7301C1070.01 96.7301 1064.08 99.1823 1060.5 104.087C1056.92 108.991 1054.85 115.792 1054.3 124.491L1054.02 133.097L1054.3 141.702C1054.85 150.401 1056.92 157.202 1060.5 162.107C1064.08 167.011 1070.01 169.463 1078.27 169.463Z" fill="#1B2778"/>
<path d="M761.366 162.25H721.925C718.911 162.25 716.467 164.708 716.467 167.74V200.76C716.467 203.792 718.911 206.25 721.925 206.25H761.366C764.381 206.25 766.825 203.792 766.825 200.76V167.74C766.825 164.708 764.381 162.25 761.366 162.25Z" fill="#28CEBC"/>
<path d="M463.829 162.25H424.306C421.291 162.25 418.847 164.708 418.847 167.74V200.76C418.847 203.792 421.291 206.25 424.306 206.25H463.829C466.843 206.25 469.287 203.792 469.287 200.76V167.74C469.287 164.708 466.843 162.25 463.829 162.25Z" fill="#28CEBC"/>
<path d="M130.454 162.25H93.3336C90.3188 162.25 87.8748 164.708 87.8748 167.74V200.76C87.8748 203.792 90.3188 206.25 93.3336 206.25H130.454C133.469 206.25 135.913 203.792 135.913 200.76V167.74C135.913 164.708 133.469 162.25 130.454 162.25Z" fill="#28CEBC"/>
<path d="M43.0852 162.25H5.50064C2.48578 162.25 0.041748 164.708 0.041748 167.74V200.76C0.041748 203.792 2.48578 206.25 5.50064 206.25H43.0852C46.1 206.25 48.5441 203.792 48.5441 200.76V167.74C48.5441 164.708 46.1 162.25 43.0852 162.25Z" fill="#28CEBC"/>
</svg>
