<svg width="126" height="28" viewBox="0 0 126 28" xmlns="http://www.w3.org/2000/svg"><title>Imported Layers</title><desc>Created with Sketch Beta.</desc><g fill="none" fill-rule="evenodd"><g fill="#F2600F"><g><g><g><g><path d="M53.487 27.528c-.33-.027-.618-.07-.845-.132-.233-.065-.432-.16-.587-.298-.146-.124-.26-.287-.352-.457l-5.19-8.29v8.194c.008.173-.055.357-.167.5-.128.144-.303.24-.508.317-.217.075-.478.126-.79.158-.32.03-.714.052-1.187.052-.476 0-.866-.022-1.19-.052-.32-.032-.58-.083-.796-.157-.206-.075-.378-.172-.502-.317-.11-.142-.17-.326-.17-.5V1.234c0-.185.06-.36.167-.5.12-.16.29-.264.5-.347.213-.083.474-.14.792-.18.323-.04.716-.056 1.2-.056.472 0 .874.015 1.193.056.313.04.574.097.788.18.214.083.382.187.505.346.11.14.165.316.165.5v14.292l4.564-6.195c.11-.173.245-.325.385-.458.158-.146.364-.25.6-.323.235-.073.505-.122.827-.157.328-.03.726-.048 1.215-.048.48 0 .884.018 1.215.048.344.035.618.084.838.156.22.08.404.17.534.33.11.138.17.325.165.512 0 .237-.054.477-.158.72-.11.243-.262.493-.474.76l-4.847 5.55 5.65 8.832c.163.263.28.5.355.708.083.207.12.4.12.596.006.176-.044.353-.154.492-.12.16-.3.257-.506.323-.214.065-.475.113-.802.145-.33.03-.753.052-1.268.052-.522 0-.95-.018-1.287-.042"/><path d="M125.5 11.908c-.297-.894-.77-1.64-1.414-2.218-.64-.575-1.457-.998-2.434-1.27-.975-.27-2.138-.4-3.49-.4-.754 0-1.496.062-2.225.186-.713.125-1.372.28-1.982.478-.61.195-1.14.41-1.6.646-.453.23-.788.44-1.005.662-.203.218-.346.464-.422.734-.075.27-.103.603-.103 1.012 0 .31.014.593.058.85.038.26.096.486.182.68.082.194.186.356.337.48.15.125.343.19.535.19.278 0 .566-.11.912-.296.315-.173.713-.37 1.193-.59.467-.207 1.01-.4 1.634-.582.597-.174 1.287-.264 2.066-.264.598 0 1.084.07 1.458.187.382.116.67.292.884.52.218.24.374.534.473.908.1.373.15.827.15 1.347v.78h-1.396c-1.526 0-2.87.115-4.03.357-1.168.236-2.156.596-2.958 1.095-.804.502-1.414 1.15-1.823 1.927-.41.784-.61 1.695-.61 2.728 0 .954.16 1.796.48 2.53.318.73.77 1.342 1.35 1.834.58.49 1.27.862 2.05 1.108.79.243 1.64.368 2.566.368 1.126 0 2.162-.22 3.09-.66.74-.352 1.413-.817 2.027-1.385v.75c-.004.227.078.453.243.61.172.16.398.235.68.29.29.048.714.07 1.298.07.54 0 .953-.022 1.252-.07.29-.052.532-.13.714-.278.19-.144.29-.383.288-.623V15.05c0-1.2-.145-2.248-.43-3.142m-4.79 10.164c-.542.617-1.085 1.082-1.598 1.4-.522.323-1.093.483-1.724.483-.762-.004-1.314-.19-1.71-.552-.39-.36-.582-.835-.593-1.5 0-.393.072-.73.21-1.01.144-.283.356-.526.672-.742.302-.202.718-.366 1.246-.476.52-.112 1.158-.168 1.92-.168h1.578v2.566"/><path d="M107.035 13.264c-.315-1.057-.81-1.98-1.48-2.762-.677-.785-1.542-1.395-2.582-1.825-1.046-.443-2.297-.658-3.747-.658-1.374 0-2.623.228-3.727.693-1.107.464-2.054 1.137-2.83 2.02-.775.885-1.362 1.952-1.763 3.207-.406 1.26-.604 2.658-.604 4.212 0 1.622.19 3.046.57 4.274.383 1.227.978 2.253 1.77 3.063.792.815 1.778 1.42 2.95 1.813 1.168.398 2.52.592 4.054.592.848 0 1.647-.055 2.396-.166.744-.112 1.41-.243 1.993-.393.573-.148 1.058-.302 1.443-.46.383-.168.61-.27.767-.43.09-.104.17-.215.237-.333.065-.13.106-.27.137-.43.028-.153.053-.335.067-.54.013-.21.013-.45.013-.74 0-.326-.007-.598-.027-.823-.02-.225-.055-.413-.124-.564-.066-.154-.16-.282-.3-.365-.12-.072-.263-.1-.414-.1-.24 0-.516.074-.835.202-.29.117-.676.25-1.135.395-.453.145-.99.277-1.62.395-.617.118-1.33.18-2.154.18-.81 0-1.49-.104-2.04-.31-.56-.21-1.008-.5-1.35-.882-.344-.39-.597-.853-.76-1.42-.143-.5-.225-1.055-.25-1.66h10.09c.508 0 .95-.168 1.263-.508.326-.35.46-.86.46-1.487v-.77c0-1.226-.158-2.37-.468-3.42m-11.33 2.547c.04-.482.123-.937.253-1.372.145-.508.362-.937.64-1.302.273-.356.617-.643 1.042-.86.41-.21.895-.318 1.47-.318 1.155.004 1.95.36 2.477 1.062.5.67.755 1.59.755 2.79h-6.637"/><path d="M74.613 13.264c-.315-1.057-.81-1.98-1.483-2.762-.682-.785-1.543-1.395-2.586-1.832-1.052-.436-2.3-.65-3.75-.65-1.364 0-2.614.228-3.725.685-1.11.472-2.05 1.145-2.825 2.03-.776.883-1.364 1.95-1.765 3.205-.41 1.26-.607 2.658-.607 4.212 0 1.622.192 3.046.576 4.274.383 1.227.974 2.253 1.767 3.063.79.815 1.777 1.42 2.948 1.813 1.167.398 2.523.592 4.052.592.848 0 1.652-.055 2.4-.166.748-.112 1.407-.243 1.99-.39.58-.15 1.06-.305 1.447-.467.383-.164.608-.266.763-.427.092-.103.172-.214.24-.332.068-.13.106-.27.14-.43.025-.16.045-.335.06-.54.014-.21.02-.45.02-.742 0-.324-.015-.596-.035-.82-.02-.227-.052-.415-.123-.566-.063-.154-.16-.282-.297-.365-.126-.072-.268-.1-.414-.1-.248 0-.514.074-.836.202-.302.117-.672.25-1.136.395-.45.145-.995.277-1.622.395-.615.118-1.337.18-2.163.18-.803 0-1.476-.104-2.03-.31-.564-.21-1.003-.5-1.354-.886-.344-.385-.597-.85-.762-1.417-.145-.5-.227-1.055-.247-1.666h10.097c.502.007.947-.162 1.262-.502.32-.35.452-.86.452-1.487v-.77c.008-1.226-.154-2.37-.46-3.42M63.276 15.81c.042-.482.123-.937.253-1.372.15-.508.364-.937.645-1.302.27-.356.617-.643 1.034-.86.415-.21.895-.318 1.475-.318 1.157.004 1.953.36 2.48 1.062.495.67.753 1.59.753 2.79h-6.64"/><path d="M28.628 27.24c-1.044-.422-1.933-1.057-2.644-1.89-.713-.827-1.248-1.842-1.6-3.025-.362-1.185-.535-2.533-.54-4.042.005-1.74.212-3.25.65-4.537.437-1.282 1.05-2.35 1.84-3.203.79-.845 1.723-1.48 2.804-1.893 1.068-.41 2.245-.61 3.522-.61.518 0 1.032.04 1.534.138.5.09.975.216 1.416.375.437.152.827.34 1.184.54.347.194.602.37.77.54.143.147.254.278.33.407.074.128.13.28.164.454.03.167.064.367.078.595.024.24.032.517.032.843 0 .76-.06 1.3-.206 1.67-.137.337-.384.607-.735.607-.288 0-.57-.118-.834-.32-.244-.173-.522-.372-.85-.588-.314-.202-.687-.396-1.13-.57-.42-.167-.94-.255-1.548-.252-1.183.004-2.028.44-2.653 1.34-.61.903-.94 2.276-.94 4.12 0 .904.083 1.698.24 2.385.162.68.395 1.24.694 1.685.3.44.67.763 1.125.977.448.223.976.33 1.593.333.64 0 1.167-.097 1.607-.283.46-.188.86-.403 1.2-.64.358-.234.65-.454.883-.647.26-.212.493-.35.768-.357.163 0 .327.048.45.16.138.123.215.283.265.484.046.195.086.43.107.708.035.277.04.637.04 1.063 0 .337-.005.624-.027.857-.02.235-.047.43-.08.603-.032.167-.077.305-.132.43-.076.152-.185.278-.35.44-.185.177-.453.357-.83.58-.386.22-.818.414-1.306.585-.48.177-1 .31-1.57.416-.568.103-1.153.155-1.75.155-1.333 0-2.523-.208-3.57-.634"/><path d="M82.3 27.458c-.734-.255-1.352-.658-1.84-1.2-.487-.54-.84-1.215-1.068-2.015-.225-.8-.33-1.734-.33-2.802v-8.537h-1.786c-.36.004-.645-.26-.783-.61-.15-.366-.213-.89-.213-1.61 0-.38.014-.705.05-.972.04-.277.085-.498.163-.682.075-.177.182-.322.33-.427.137-.092.305-.14.473-.14h1.765V4.89c0-.178.055-.348.15-.49.117-.173.29-.278.502-.353.213-.087.48-.138.81-.174.323-.034.715-.052 1.174-.052.474 0 .872.02 1.198.053.325.036.593.087.8.174.208.075.376.18.493.34.11.146.168.317.168.502v3.57h3.436c.175 0 .344.048.482.14.15.106.247.25.325.428.08.184.134.405.17.683.026.268.04.594.046.972-.006.72-.06 1.245-.21 1.61-.14.352-.427.615-.792.61h-3.455v7.804c-.006.915.148 1.57.395 1.972.237.375.645.58 1.348.583.24 0 .45-.023.63-.057.2-.046.366-.098.51-.146.155-.06.292-.108.392-.152.134-.057.264-.084.395-.084.123-.003.253.036.352.105.155.104.227.256.27.416.046.154.084.35.12.584.026.25.04.554.046.922h-.006c0 .574-.027 1.025-.11 1.358-.076.325-.165.576-.334.752-.154.16-.352.285-.593.39-.24.102-.514.19-.824.265-.308.07-.645.13-1.002.167-.36.04-.72.063-1.084.063-.972 0-1.825-.125-2.56-.382"/><path d="M15.552 5.787c-.46-.444-.637-1.162-.637-2.13 0-1.004.184-1.753.65-2.217.48-.458 1.277-.634 2.38-.642 1.095.008 1.877.177 2.35.62.46.452.647 1.173.647 2.143 0 1.006-.195 1.755-.667 2.21-.488.447-1.277.627-2.368.627-1.106-.007-1.888-.166-2.355-.61"/><path d="M18.88 8.46c.567.003 1.017.117 1.302.433.266.292.38.7.38 1.175v16.476c.007.173-.054.357-.164.5-.123.144-.296.24-.493.318-.217.073-.472.124-.797.156-.33.03-.715.05-1.182.05-.476 0-.88-.02-1.197-.05-.32-.032-.58-.083-.794-.156-.2-.077-.377-.174-.494-.32-.11-.14-.17-.32-.17-.498v-13.64H8.14v7.802c0 .915.147 1.57.4 1.972.235.38.643.58 1.35.586.24 0 .446-.027.628-.062.195-.045.367-.097.515-.145.153-.06.283-.108.387-.153.124-.056.26-.083.39-.083.132-.003.248.036.357.106.153.103.222.256.27.415.043.154.08.35.11.583.04.25.054.555.054.922 0 .576-.033 1.013-.098 1.34-.072.31-.168.557-.327.74-.147.18-.357.316-.61.422-.24.1-.523.188-.828.264-.313.07-.648.13-1.008.167-.355.04-.717.063-1.082.063-.975 0-1.825-.125-2.56-.38-.736-.257-1.353-.66-1.834-1.2-.49-.54-.85-1.217-1.07-2.017-.226-.798-.336-1.734-.336-2.802v-8.537h-1.78c-.36.004-.657-.26-.79-.61-.155-.366-.207-.89-.213-1.612 0-.376.02-.702.052-.97.034-.277.082-.498.16-.68C.35 8.85.46 8.705.61 8.6c.138-.094.303-.143.474-.143h1.764V4.89c0-.178.047-.352.15-.49.117-.173.293-.278.5-.353.22-.087.49-.14.808-.174.326-.034.714-.052 1.184-.052.474 0 .872.02 1.195.053.325.035.586.087.803.174.2.075.37.18.493.34.105.146.16.317.16.502v3.57h10.74"/></g></g></g></g></g></g></svg>