<svg height="512" viewBox="0 0 512 512" width="512" xmlns="http://www.w3.org/2000/svg" fill="#0d1d31">
    <g id="Outline">
        <path d="m18.54 431.168 15.913 1.664a445.852 445.852 0 0 1 25.9-110.024l-14.982-5.616a461.848 461.848 0 0 0 -26.831 113.976z"/>
        <path d="m16 480v16h16v-16c0-10.47.366-21.05 1.086-31.446l-15.961-1.108c-.747 10.764-1.125 21.717-1.125 32.554z"/>
        <path d="m112 483.368v12.632h16v-12.632a353.18 353.18 0 0 1 11.437-89.344l-15.48-4.048a369.209 369.209 0 0 0 -11.957 93.392z"/>
        <path d="m184 364.686h16v22.627h-16z" transform="matrix(.707 -.707 .707 .707 -209.642 245.91)"/>
        <path d="m152 332.686h16v22.627h-16z" transform="matrix(.707 -.707 .707 .707 -196.387 213.908)"/>
        <path d="m120 300.686h16v22.627h-16z" transform="matrix(.707 -.707 .707 .707 -183.133 181.906)"/>
        <path d="m88 268.686h16v22.627h-16z" transform="matrix(.707 -.707 .707 .707 -169.878 149.904)"/>
        <path d="m56 236.686h16v22.627h-16z" transform="matrix(.707 -.707 .707 .707 -156.623 117.902)"/>
        <path d="m490.343 405.657 11.314-11.314-18.343-18.343 10.343-10.343a8 8 0 0 0 0-11.314l-46.5-46.5-11.314 11.314 16.843 16.843-98.343 98.343 11.314 11.314 98.343-98.343 12.687 12.686-116.687 116.687-234.343-234.343a14.628 14.628 0 1 1 20.686-20.687l72 72a8 8 0 1 0 11.314-11.314l-72-72a14.628 14.628 0 1 1 20.686-20.687l72 72a8 8 0 0 0 11.312 0 8.219 8.219 0 0 0 0-11.316l-72-72a14.628 14.628 0 1 1 20.686-20.687l72 72a8 8 0 0 0 11.312 0 8.193 8.193 0 0 0 0-11.316l-72-72a14.628 14.628 0 1 1 20.686-20.687l96.38 96.38a8.079 8.079 0 0 0 13.614-4.818l5.58-53.014a13.633 13.633 0 0 1 27.173.712l5.588 106.17a7.99 7.99 0 0 0 2.332 5.236l31.833 31.834 11.314-11.314-29.659-29.656-.718-13.642 26.224-26.221a28.277 28.277 0 0 0 8-19.317 27.136 27.136 0 0 0 -8-19.317l-32.406-32.406a29.667 29.667 0 0 0 -18.763-18.762l-107.865-107.863a46.642 46.642 0 0 0 -32.966-13.652 46.956 46.956 0 0 0 -32.967 13.652l-136.856 136.858 11.313 11.314 136.856-136.857a30.841 30.841 0 0 1 21.654-8.967 30.642 30.642 0 0 1 21.653 8.967l97.637 97.633a29.589 29.589 0 0 0 -11.51 9.21l-102.257-97.6-11.046 11.577 107.347 102.462-3.644 34.617-84.523-84.522a30.614 30.614 0 0 0 -52.238 23.06q-.707-.031-1.419-.032a30.607 30.607 0 0 0 -30.581 32.028q-.707-.031-1.419-.032a30.607 30.607 0 0 0 -30.581 32.032q-.707-.031-1.419-.032a30.629 30.629 0 0 0 -21.657 52.285l134.343 134.347-16.686 16.686-10.343-10.343-11.314 11.314 10.343 10.343-4.686 4.683a11.5 11.5 0 0 1 -16.007 0l-159.027-159.031a30.627 30.627 0 0 1 -6.634-33.374 30.412 30.412 0 0 1 6.635-9.93l29.19-29.191-11.314-11.314-29.189 29.19a46.619 46.619 0 0 0 -13.654 32.967 46.945 46.945 0 0 0 13.653 32.967l159.029 159.033a28.223 28.223 0 0 0 19.318 8 27.143 27.143 0 0 0 19.317-8l32.683-32.686 94.343 94.343a8 8 0 0 0 11.314 0l10.343-10.343 18.343 18.343 11.314-11.314-18.343-18.343 84.686-84.687zm-86.132-181.852 4.435 4.235-4 4zm19.619-15.805a11.232 11.232 0 0 1 -3.147 8l-.72.72-16.978-16.212-1.012-19.224 18.71 18.716a11.388 11.388 0 0 1 3.147 8z"/>
        <path d="m322.808 60.351-5.616-14.983c50.435-18.9 105.184-28.781 162.726-29.368l.164 16c-55.675.567-108.589 10.105-157.274 28.351z"/>
        <path d="m401.771 140.091-3.542-15.6c25.637-5.817 52.355-8.8 81.684-9.119l.174 16c-28.182.302-53.799 3.155-78.316 8.719z"/>
    </g>
</svg>