<svg id="Layer_2" height="512" viewBox="0 0 512 512" width="512" xmlns="http://www.w3.org/2000/svg" data-name="Layer 2" fill="#0d1d31">
    <path d="m336 40h-56a8 8 0 0 0 -8 8v56h-8a8 8 0 0 0 -8 8v24h-8a8 8 0 0 0 -7.646 5.647l-31.982 103.94a7.9 7.9 0 0 0 -.227.915c-.016.086-.026.172-.04.258-.031.2-.057.4-.073.6-.009.115-.013.23-.017.346 0 .1-.015.195-.015.294v224a40.046 40.046 0 0 0 40 40h120a40.046 40.046 0 0 0 40-40v-224c0-.1-.011-.2-.015-.294 0-.115-.008-.23-.017-.346-.016-.2-.042-.4-.073-.6-.014-.086-.023-.172-.04-.258a7.9 7.9 0 0 0 -.227-.915l-31.982-103.94a8 8 0 0 0 -7.646-5.647h-8v-24a8 8 0 0 0 -8-8h-8v-56a8 8 0 0 0 -8-8zm-48 48h16v-16h-16v-16h40v48h-40zm104 296h-168v-128h168zm-24 112h-120a24.027 24.027 0 0 1 -24-24v-72h168v72a24.027 24.027 0 0 1 -24 24zm-141.168-256 16.629-54.046a104.9 104.9 0 0 0 27.956 6.024c2.406.176 4.7.256 6.913.256 11.13 0 20.024-2.039 29.35-4.177 6.455-1.48 13.131-3.011 21.394-4.13a175.139 175.139 0 0 1 42.735-.348l17.359 56.421zm139.886-72.964a189.141 189.141 0 0 0 -39.792 1.036c-8.984 1.216-16.336 2.9-22.823 4.39-10.832 2.483-19.386 4.444-31.521 3.56a89.085 89.085 0 0 1 -24.412-5.376l5.738-18.646h108.184zm-94.718-31.036v-16h72v16z"/>
    <path d="m268 408a28 28 0 1 0 28 28 28.031 28.031 0 0 0 -28-28zm0 40a12 12 0 1 1 12-12 12.013 12.013 0 0 1 -12 12z"/>
    <path d="m348 432a28 28 0 1 0 28 28 28.031 28.031 0 0 0 -28-28zm0 40a12 12 0 1 1 12-12 12.013 12.013 0 0 1 -12 12z"/>
    <path d="m304 352h16v-24h24v-16h-24v-24h-16v24h-24v16h24z"/>
    <path d="m119.07 3.743h16v16h-16z" transform="matrix(.468 -.884 .884 .468 57.237 118.551)"/>
    <path d="m128.683 149.206h16v15.999h-16z" transform="matrix(.84 -.543 .543 .84 -63.473 99.471)"/>
    <path d="m209.282 97.053h16v15.999h-16z" transform="matrix(.84 -.543 .543 .84 -22.212 134.889)"/>
    <path d="m155.55 131.821h16v15.999h-16z" transform="matrix(.84 -.543 .543 .84 -49.719 111.277)"/>
    <path d="m147.352 18.715h16v16h-16z" transform="matrix(.468 -.884 .884 .468 59.053 151.513)"/>
    <path d="m175.633 33.688h16v16h-16z" transform="matrix(.468 -.884 .884 .468 60.869 184.474)"/>
    <path d="m182.416 114.438h16v15.999h-16z" transform="matrix(.84 -.543 .543 .84 -35.966 123.083)"/>
    <path d="m203.914 48.66h16v16h-16z" transform="matrix(.468 -.884 .884 .468 62.685 217.436)"/>
    <path d="m176 72h16v16h-16z"/>
    <path d="m112 72h16v16h-16z"/>
    <path d="m144 72h16v16h-16z"/>
</svg>