<?xml version="1.0" encoding="UTF-8" standalone="no"?>
<svg
        version="1.0"
        width="1000.000000pt"
        height="1000.000000pt"
        viewBox="0 0 1000.000000 1000.000000"
        preserveAspectRatio="xMidYMid meet"
        fill="#0d1d31"
        id="svg159"
        xmlns="http://www.w3.org/2000/svg"
>
  <defs
     id="defs163" />
  <g
     transform="matrix(0.1,0,0,-0.1,-2.2751183,1000.91)"
     fill="#000000"
     stroke="none"
     id="g157"
     style="fill:#0d1d31;fill-opacity:1;stroke:#0d1d31;stroke-opacity:1">
    <path
       d="m 6665,8683 c -145,-19 -306,-67 -604,-183 -337,-130 -499,-170 -691,-170 -135,0 -227,15 -390,65 -427,131 -512,147 -755,147 -192,0 -306,-17 -467,-73 -323,-110 -633,-359 -841,-674 -125,-190 -209,-400 -252,-634 -54,-286 -81,-372 -154,-483 -121,-185 -336,-332 -716,-488 -388,-160 -554,-259 -736,-440 -252,-251 -415,-560 -486,-925 -27,-140 -24,-446 6,-585 66,-312 222,-639 470,-986 353,-497 747,-795 1208,-914 265,-68 627,-67 918,4 357,87 658,260 928,533 288,291 462,632 542,1062 l 16,84 -41,56 c -68,94 -171,271 -215,369 l -41,93 -80,27 c -138,47 -237,120 -306,226 -57,89 -79,170 -79,296 0,370 284,688 596,668 99,-7 171,-41 248,-120 34,-35 91,-85 127,-111 58,-43 69,-48 102,-42 21,3 84,10 140,15 131,13 191,27 252,57 90,45 166,146 212,283 31,90 24,237 -20,450 -58,278 -58,384 0,486 73,128 219,190 449,188 142,-1 203,-11 500,-79 237,-54 290,-64 412,-74 365,-32 630,91 756,349 65,133 78,190 84,366 6,182 -11,308 -62,462 -129,384 -390,626 -742,687 -79,14 -215,18 -288,8 z m 225,-34 c 415,-48 708,-344 813,-819 31,-142 30,-394 -1,-505 -39,-136 -86,-221 -166,-300 -110,-109 -239,-167 -415,-186 -144,-15 -277,1 -616,76 -159,35 -339,69 -400,75 -301,31 -522,-61 -597,-248 -36,-90 -31,-230 16,-452 20,-96 39,-209 42,-250 15,-190 -83,-390 -223,-460 -56,-28 -97,-38 -193,-46 -41,-3 -102,-10 -135,-14 l -60,-8 -70,46 c -38,26 -97,74 -130,108 -137,138 -315,160 -512,64 -223,-110 -375,-371 -374,-645 1,-164 51,-288 161,-396 69,-68 195,-141 265,-155 32,-6 37,-13 103,-148 38,-77 105,-193 147,-256 88,-129 86,-120 55,-270 -29,-138 -89,-315 -153,-450 -36,-77 -137,-241 -196,-320 -71,-95 -223,-253 -321,-335 -264,-220 -658,-384 -1020,-424 -116,-13 -395,-6 -505,13 -312,54 -567,173 -841,394 -148,119 -356,345 -475,517 -106,151 -131,189 -188,285 -364,604 -413,1167 -151,1717 150,316 406,585 703,741 100,53 117,61 407,183 107,45 197,85 200,89 3,4 28,19 55,33 101,51 239,150 314,225 144,144 207,281 256,552 42,238 79,357 163,525 190,383 551,711 917,834 173,58 231,66 460,66 247,0 310,-11 623,-105 272,-82 359,-100 487,-105 196,-7 378,35 700,159 371,145 501,181 735,204 14,1 68,-3 120,-9 z"
       id="path111"
       style="fill:#0d1d31;fill-opacity:1;stroke:#0d1d31;stroke-width:187.5;stroke-miterlimit:4;stroke-dasharray:none;stroke-opacity:1" />
    <path
       d="m 7290,6793 c 0,-10 7,-83 15,-163 42,-425 46,-1281 7,-1575 -30,-217 -83,-427 -132,-525 -10,-19 -21,-43 -24,-52 -5,-16 -19,-18 -108,-18 -160,0 -370,18 -518,45 -181,32 -199,34 -210,20 -8,-9 10,-15 72,-23 46,-7 135,-21 198,-32 81,-15 182,-24 345,-29 127,-4 230,-7 231,-7 0,1 16,37 36,81 68,152 111,326 145,580 15,121 18,209 17,645 -1,468 -9,678 -35,935 -11,112 -16,135 -30,135 -5,0 -9,-8 -9,-17 z"
       id="path113"
       style="fill:#0d1d31;fill-opacity:1;stroke:#0d1d31;stroke-width:187.5;stroke-miterlimit:4;stroke-dasharray:none;stroke-opacity:1" />
    <path
       d="m 4227,5529 c -33,-13 -34,-46 -2,-40 83,15 136,12 187,-12 98,-45 158,-117 99,-117 -9,0 -38,-13 -63,-29 -67,-43 -119,-118 -133,-194 -6,-33 -5,-37 13,-37 15,0 21,9 26,39 13,82 109,180 191,197 29,5 31,3 52,-53 32,-82 42,-136 47,-254 4,-92 6,-104 22,-104 16,0 18,9 15,95 -6,199 -46,316 -140,411 -73,72 -137,103 -221,106 -36,1 -78,-2 -93,-8 z"
       id="path115"
       style="fill:#0d1d31;fill-opacity:1;stroke:#0d1d31;stroke-width:187.5;stroke-miterlimit:4;stroke-dasharray:none;stroke-opacity:1" />
    <path
       d="m 4818,5470 c 19,-43 40,-72 72,-98 54,-43 106,-90 260,-233 184,-172 459,-388 695,-548 44,-30 89,-62 101,-72 11,-11 26,-19 32,-19 25,0 10,21 -35,53 -321,221 -582,423 -743,573 -108,101 -249,227 -298,267 -19,15 -46,51 -60,79 -38,74 -57,72 -24,-2 z"
       id="path117"
       style="fill:#0d1d31;fill-opacity:1;stroke:#0d1d31;stroke-width:187.5;stroke-miterlimit:4;stroke-dasharray:none;stroke-opacity:1" />
    <path
       d="m 4980,5451 c 0,-4 18,-22 40,-40 23,-18 80,-70 128,-115 210,-199 276,-254 507,-428 205,-154 398,-283 403,-269 2,7 2,14 1,15 -2,2 -62,42 -133,91 -124,84 -165,114 -324,234 -113,85 -270,218 -399,339 -65,60 -134,123 -153,139 -37,32 -70,48 -70,34 z"
       id="path119"
       style="fill:#0d1d31;fill-opacity:1;stroke:#0d1d31;stroke-width:187.5;stroke-miterlimit:4;stroke-dasharray:none;stroke-opacity:1" />
    <path
       d="m 6412,5111 c -30,-18 34,-22 392,-21 l 371,1 -3,-23 c -5,-40 -49,-124 -87,-166 -79,-88 -186,-126 -334,-120 -80,3 -106,8 -153,31 -69,34 -122,91 -166,180 -34,69 -52,90 -52,61 0,-29 69,-146 113,-192 78,-81 192,-118 327,-108 91,7 170,36 236,86 89,70 157,199 130,251 l -12,24 -374,2 c -206,1 -381,-1 -388,-6 z"
       id="path121"
       style="fill:#0d1d31;fill-opacity:1;stroke:#0d1d31;stroke-width:187.5;stroke-miterlimit:4;stroke-dasharray:none;stroke-opacity:1" />
    <path
       d="m 4680,4595 c -18,-22 -144,-58 -185,-53 -22,2 -35,0 -35,-7 0,-35 157,-314 222,-395 15,-19 57,-72 93,-118 37,-45 108,-126 158,-179 129,-135 392,-353 426,-353 16,0 1,29 -18,35 -10,3 -26,13 -37,23 -10,9 -62,51 -114,94 -120,96 -282,257 -377,373 -40,50 -83,101 -96,115 -35,38 -37,51 -27,193 21,305 21,309 -10,272 z m -14,-187 c -4,-78 -9,-145 -12,-147 -9,-10 -34,26 -88,130 -31,58 -56,108 -56,112 0,3 26,11 58,17 31,7 64,16 72,21 8,5 19,9 24,9 5,0 6,-59 2,-142 z"
       id="path123"
       style="fill:#0d1d31;fill-opacity:1;stroke:#0d1d31;stroke-width:187.5;stroke-miterlimit:4;stroke-dasharray:none;stroke-opacity:1" />
    <path
       d="m 7972,4564 c -53,-26 -98,-61 -175,-137 -167,-164 -273,-284 -307,-349 -58,-109 -51,-218 15,-218 53,0 226,131 332,253 63,72 72,87 53,87 -5,0 -10,-4 -10,-8 0,-19 -206,-214 -270,-257 -116,-75 -159,-56 -130,59 20,77 51,123 182,266 219,238 315,310 414,310 40,0 114,-32 114,-49 0,-3 60,-6 133,-6 117,0 137,-3 179,-23 115,-55 207,-182 242,-332 28,-117 44,-442 62,-1265 6,-293 -3,-404 -48,-585 l -22,-91 33,-127 c 19,-70 34,-138 35,-152 1,-21 -15,-36 -99,-92 -55,-36 -140,-87 -190,-113 -49,-26 -110,-58 -135,-72 -97,-54 -295,-132 -377,-148 -36,-7 -55,-25 -26,-25 53,0 243,69 372,134 189,95 291,151 384,212 125,80 118,52 63,257 l -37,138 20,62 c 47,145 56,232 54,557 -1,168 -4,346 -7,395 -3,50 -8,205 -11,345 -11,441 -26,561 -93,703 -73,156 -198,246 -353,255 -48,3 -97,0 -125,-8 -35,-10 -48,-10 -53,-2 -4,7 -22,23 -41,37 -48,35 -92,32 -178,-11 z"
       id="path125"
       style="fill:#0d1d31;fill-opacity:1;stroke:#0d1d31;stroke-width:187.5;stroke-miterlimit:4;stroke-dasharray:none;stroke-opacity:1" />
    <path
       d="m 6035,4550 c -10,-11 -15,-23 -12,-27 7,-6 36,25 37,40 0,11 -6,8 -25,-13 z"
       id="path129"
       style="fill:#0d1d31;fill-opacity:1;stroke:#0d1d31;stroke-width:187.5;stroke-miterlimit:4;stroke-dasharray:none;stroke-opacity:1" />
    <path
       d="m 6272,4457 c -12,-27 -22,-51 -22,-53 0,-3 -60,-96 -134,-207 -73,-111 -160,-247 -191,-302 -55,-95 -195,-368 -195,-379 0,-3 -11,-29 -24,-58 -39,-84 -76,-180 -76,-197 0,-26 14,0 76,148 113,266 255,524 428,776 105,154 170,274 163,302 -3,13 -10,4 -25,-30 z"
       id="path131"
       style="fill:#0d1d31;fill-opacity:1;stroke:#0d1d31;stroke-width:187.5;stroke-miterlimit:4;stroke-dasharray:none;stroke-opacity:1" />
    <path
       d="m 8263,4227 c -18,-7 -43,-22 -55,-35 -21,-21 -23,-30 -20,-128 l 2,-106 -34,-34 c -20,-20 -44,-34 -59,-34 -65,0 -126,104 -134,232 -4,47 -10,75 -16,71 -5,-3 -8,-40 -5,-88 6,-124 61,-223 134,-241 33,-8 95,25 122,66 25,36 25,40 6,170 -8,56 16,91 75,108 43,13 64,33 34,31 -10,0 -33,-6 -50,-12 z"
       id="path135"
       style="fill:#0d1d31;fill-opacity:1;stroke:#0d1d31;stroke-width:187.5;stroke-miterlimit:4;stroke-dasharray:none;stroke-opacity:1" />
    <path
       d="m 8347,4207 c -4,-10 -7,-66 -7,-123 0,-96 -3,-113 -36,-202 -53,-142 -173,-386 -232,-475 -77,-114 -187,-241 -288,-335 l -89,-82 24,-68 c 32,-93 131,-240 131,-194 0,4 -19,37 -43,73 -23,36 -51,91 -62,122 l -19,57 116,118 c 121,121 162,169 242,285 49,71 154,273 201,387 14,36 32,79 40,95 42,94 53,189 37,310 -5,36 -9,45 -15,32 z"
       id="path137"
       style="fill:#0d1d31;fill-opacity:1;stroke:#0d1d31;stroke-width:187.5;stroke-miterlimit:4;stroke-dasharray:none;stroke-opacity:1" />
    <path
       d="m 6870,4163 c -52,-19 -269,-132 -340,-178 -19,-12 -69,-44 -110,-71 -229,-146 -575,-453 -709,-627 -47,-62 -50,-92 -4,-36 128,155 308,331 498,485 181,147 600,395 692,410 54,8 87,-24 80,-76 -13,-96 -97,-190 -342,-386 -257,-204 -407,-347 -506,-479 -55,-75 -143,-247 -154,-305 -10,-52 7,-27 39,55 83,213 231,384 586,675 259,212 343,293 375,362 24,51 32,121 17,144 -19,28 -81,42 -122,27 z"
       id="path139"
       style="fill:#0d1d31;fill-opacity:1;stroke:#0d1d31;stroke-width:187.5;stroke-miterlimit:4;stroke-dasharray:none;stroke-opacity:1" />
    <path
       d="m 4680,3971 c 0,-35 307,-352 431,-446 15,-11 63,-48 107,-83 51,-39 83,-58 88,-51 3,6 2,14 -3,18 -141,92 -476,398 -563,514 -34,45 -60,65 -60,48 z"
       id="path141"
       style="fill:#0d1d31;fill-opacity:1;stroke:#0d1d31;stroke-width:187.5;stroke-miterlimit:4;stroke-dasharray:none;stroke-opacity:1" />
    <path
       d="m 7135,3548 c -22,-12 -84,-55 -139,-96 -266,-201 -570,-391 -884,-551 -56,-29 -99,-57 -96,-62 6,-10 196,87 384,194 191,110 410,255 626,415 118,87 140,97 189,92 63,-6 71,-81 17,-160 -34,-50 -249,-264 -327,-326 -239,-189 -483,-408 -546,-492 -27,-36 -49,-69 -49,-73 0,-18 16,-8 33,20 43,74 234,251 553,513 173,142 342,317 379,391 31,65 29,95 -12,133 -32,30 -74,30 -128,2 z"
       id="path143"
       style="fill:#0d1d31;fill-opacity:1;stroke:#0d1d31;stroke-width:187.5;stroke-miterlimit:4;stroke-dasharray:none;stroke-opacity:1" />
    <path
       d="m 5346,3444 c -11,-28 -6,-39 9,-20 8,11 15,23 15,28 0,14 -18,9 -24,-8 z"
       id="path145"
       style="fill:#0d1d31;fill-opacity:1;stroke:#0d1d31;stroke-width:187.5;stroke-miterlimit:4;stroke-dasharray:none;stroke-opacity:1" />
    <path
       d="m 7833,2698 c -17,-23 -35,-95 -50,-205 -14,-105 50,-284 133,-373 l 43,-46 4,-168 c 3,-92 7,-170 10,-173 13,-13 19,56 15,185 -4,147 -8,162 -64,224 -103,116 -140,304 -94,483 20,79 21,96 3,73 z"
       id="path147"
       style="fill:#0d1d31;fill-opacity:1;stroke:#0d1d31;stroke-width:187.5;stroke-miterlimit:4;stroke-dasharray:none;stroke-opacity:1" />
    <path
       d="m 7275,2689 c -64,-12 -159,-51 -320,-131 -173,-87 -241,-114 -308,-123 -26,-3 -45,-10 -42,-15 9,-15 94,0 171,31 39,15 138,61 220,102 160,81 235,109 292,111 31,1 38,-3 40,-21 5,-34 -46,-120 -102,-169 -71,-65 -189,-134 -321,-190 -63,-27 -115,-52 -115,-57 0,-10 23,-4 120,35 207,81 367,203 429,326 40,80 17,116 -64,101 z"
       id="path149"
       style="fill:#0d1d31;fill-opacity:1;stroke:#0d1d31;stroke-width:187.5;stroke-miterlimit:4;stroke-dasharray:none;stroke-opacity:1" />
    <path
       d="m 3821,2586 c -7,-8 -44,-79 -84,-158 -132,-262 -239,-398 -417,-528 -139,-102 -377,-233 -598,-329 -209,-92 -282,-136 -282,-172 0,-20 65,-81 112,-105 18,-9 35,-20 38,-23 13,-16 282,-151 301,-151 5,0 17,-4 27,-9 53,-28 254,-86 417,-120 210,-44 523,-91 596,-89 35,1 107,-4 159,-12 126,-17 148,-18 187,-10 17,4 53,3 80,-3 26,-5 91,-11 143,-12 180,-5 335,-15 366,-25 36,-12 331,-12 459,1 306,30 412,41 425,46 8,4 19,5 25,4 12,-3 246,29 265,36 8,3 27,5 42,4 14,-1 29,2 32,7 3,6 15,8 26,5 11,-3 26,0 33,6 8,6 16,8 19,5 7,-7 272,43 488,92 283,64 648,171 855,251 197,76 221,85 250,98 17,7 58,25 92,40 34,15 64,34 67,42 8,20 -2,17 -134,-42 -173,-76 -527,-204 -700,-252 -553,-153 -1095,-251 -1680,-303 -68,-6 -129,-14 -135,-18 -16,-10 -375,-12 -425,-2 -57,11 -234,24 -365,25 -55,1 -122,7 -148,12 -32,7 -62,7 -90,1 -23,-5 -58,-7 -77,-4 -19,3 -48,7 -65,10 -54,8 -150,20 -157,18 -14,-3 -257,29 -400,53 -385,65 -608,130 -823,237 -97,49 -223,129 -253,161 -20,21 -21,25 -6,45 17,25 78,57 239,127 427,185 712,379 872,595 56,75 152,245 203,358 40,89 47,120 21,88 z"
       id="path151"
       style="fill:#0d1d31;fill-opacity:1;stroke:#0d1d31;stroke-width:187.5;stroke-miterlimit:4;stroke-dasharray:none;stroke-opacity:1" />
    <path
       d="m 6322,2435 c 2,-12 16,-18 53,-20 28,-2 79,-6 116,-10 49,-4 70,-1 85,10 14,11 15,14 4,15 -78,2 -174,9 -213,15 -43,7 -49,5 -45,-10 z"
       id="path153"
       style="fill:#0d1d31;fill-opacity:1;stroke:#0d1d31;stroke-width:187.5;stroke-miterlimit:4;stroke-dasharray:none;stroke-opacity:1" />
    <path
       d="m 6760,2193 c 0,-9 96,-87 160,-130 237,-159 574,-284 934,-347 49,-9 93,-13 99,-9 14,8 -39,29 -98,37 -106,15 -324,70 -448,112 -221,76 -407,173 -561,291 -67,51 -86,61 -86,46 z"
       id="path155"
       style="fill:#0d1d31;fill-opacity:1;stroke:#0d1d31;stroke-width:187.5;stroke-miterlimit:4;stroke-dasharray:none;stroke-opacity:1" />
    <path
       style="fill:#0d1d31;fill-opacity:1;stroke:#0d1d31;stroke-width:187.5;stroke-linecap:butt;stroke-linejoin:miter;stroke-miterlimit:4;stroke-dasharray:none;stroke-opacity:1"
       d="M 6616.4019,2721.2151 7275,2689 l 420,301"
       id="path4303"/>
    <path
       style="fill:#0d1d31;fill-opacity:1;stroke:#0d1d31;stroke-width:187.5;stroke-linecap:butt;stroke-linejoin:miter;stroke-miterlimit:4;stroke-dasharray:none;stroke-opacity:1"
       d="m 7128.8943,4459.2053 97.6282,6.0367 293.1811,13.0744 323.2901,14.4171"
       id="path4303-1"/>
  </g>
</svg>
