<?xml version="1.0" encoding="utf-8"?>
<svg xmlns="http://www.w3.org/2000/svg" height="126px" version="1.1" viewBox="0 0 447 126" width="447px">
    
    <title>Page 1</title>
    <desc>Created with Sketch.</desc>
    <defs/>
    <g fill="none" fill-rule="evenodd" id="Page-1" stroke="none" stroke-width="1">
        <g transform="translate(0.000000, -1.000000)">
            <path d="M82.9789,88.0997 L82.9789,88.0997 L98.7169,72.3617 C101.6149,69.4637 101.6149,64.7667 98.7169,61.8697 L82.9789,46.1307 C88.7729,40.3357 88.7729,30.9407 82.9789,25.1467 C77.1839,19.3517 67.7889,19.3517 61.9939,25.1467 L46.2559,9.4077 C43.3579,6.5097 38.6609,6.5097 35.7629,9.4077 L9.5329,35.6387 L9.5329,98.5917 L35.7629,124.8237 C38.6609,127.7207 43.3579,127.7197 46.2559,124.8237 L61.9939,109.0837 C56.1999,103.2897 56.1999,93.8947 61.9939,88.0997 C67.7889,82.3047 77.1839,82.3047 82.9789,88.0997" fill="#FFCC33" id="Fill-1"/>
            <path d="M9.5327,98.5919 L35.7627,72.3619 C38.6607,69.4639 38.6607,64.7669 35.7627,61.8689 L9.5327,35.6389 L9.5327,98.5919 Z" fill="#FF9900" id="Fill-4"/>
            <path d="M93.4136,56.3607 C95.2826,58.2287 96.3116,60.7147 96.3116,63.3577 C96.3116,66.0007 95.2826,68.4867 93.4136,70.3557 L75.9236,87.8457 L74.1726,86.0937 C69.3516,81.2747 61.5106,81.2747 56.6896,86.0937 C51.8716,90.9137 51.8716,98.7557 56.6906,103.5757 L58.4416,105.3277 L40.9526,122.8177 C39.0226,124.7467 36.4886,125.7107 33.9536,125.7107 C31.4196,125.7107 28.8856,124.7467 26.9566,122.8177 L-0.0004,95.8607 L0.0006,30.8547 L26.9566,3.8987 C28.8256,2.0297 31.3106,0.9987 33.9546,0.9987 C36.5976,0.9987 39.0826,2.0297 40.9526,3.8987 L55.0636,18.0097 C61.8406,12.9377 71.5176,13.4797 77.6756,19.6367 C80.9456,22.9077 82.7466,27.2557 82.7466,31.8807 C82.7466,35.6697 81.5386,39.2727 79.3036,42.2487 L93.4136,56.3607 Z M26.9566,59.8637 L4.9546,37.8617 L4.9546,88.8547 L26.9566,66.8527 C27.8896,65.9187 28.4046,64.6777 28.4046,63.3577 C28.4046,62.0387 27.8896,60.7967 26.9566,59.8637 Z M89.9106,66.8527 C90.8436,65.9187 91.3576,64.6777 91.3576,63.3577 C91.3576,62.0387 90.8436,60.7967 89.9106,59.8637 L72.4206,42.3737 L74.1726,40.6217 C76.5066,38.2867 77.7926,35.1827 77.7926,31.8807 C77.7926,28.5797 76.5066,25.4747 74.1726,23.1407 C69.3516,18.3207 61.5106,18.3217 56.6906,23.1397 L54.9386,24.8917 L37.4486,7.4017 C36.5146,6.4687 35.2746,5.9547 33.9546,5.9547 C32.6346,5.9547 31.3936,6.4687 30.4606,7.4017 L5.9806,31.8807 L30.4596,56.3597 C34.3186,60.2187 34.3186,66.4977 30.4596,70.3557 L5.9806,94.8337 L30.4596,119.3137 C31.3926,120.2477 32.6346,120.7607 33.9546,120.7607 C35.2746,120.7607 36.5146,120.2477 37.4486,119.3137 L51.5596,105.2027 C46.4886,98.4247 47.0306,88.7477 53.1866,82.5907 C59.3446,76.4347 69.0206,75.8917 75.7986,80.9637 L89.9106,66.8527 Z M129.5733,67.7391 C129.0213,67.7391 128.6523,68.1081 128.6523,68.6591 C128.6523,77.0331 132.9783,80.7151 139.3273,80.7151 C144.1123,80.7151 147.7013,78.3221 148.8053,74.9171 C149.1733,73.7211 150.0943,73.3531 150.9213,73.3531 L155.6143,73.3531 C156.5353,73.3531 157.3623,73.9051 157.1793,75.1931 C156.0743,83.1991 148.8983,88.9961 139.3273,88.9961 C128.2843,88.9961 121.1993,81.1751 120.4633,71.5131 C120.1873,67.8321 120.1873,62.3111 120.4633,58.6301 C121.1993,48.9681 128.2843,41.1461 139.3273,41.1461 C150.4613,41.1461 157.7323,48.0481 157.7323,59.5501 L157.7323,65.8991 C157.7323,66.9121 156.9023,67.7391 155.8913,67.7391 L129.5733,67.7391 Z M128.8373,59.4581 C128.8373,60.0111 129.2043,60.3781 129.7573,60.3781 L148.8983,60.3781 C149.4493,60.3781 149.8173,60.0111 149.8173,59.4581 C149.8173,53.1071 145.1243,49.4281 139.4193,49.4281 C133.0693,49.4281 128.8373,53.8451 128.8373,59.4581 Z M165.7361,71.5128 C165.4591,67.8318 165.4591,62.3108 165.7361,58.6298 C166.4721,48.9678 173.5571,41.1468 183.2191,41.1468 C187.4531,41.1468 189.9371,43.4468 191.7781,43.4468 C193.1581,43.4468 193.8011,42.8938 193.8011,41.1468 L193.8011,24.8578 C193.8011,23.8458 194.6301,23.0178 195.6421,23.0178 L200.2431,23.0178 C201.2551,23.0178 202.0831,23.8458 202.0831,24.8578 L202.0831,86.2358 C202.0831,87.2468 201.2551,88.0758 200.2431,88.0758 L197.1151,88.0758 C196.5631,88.0758 196.1941,87.7998 195.8271,87.4318 C195.2741,86.7878 194.4461,85.9598 193.5261,85.9598 C190.8571,85.9598 190.0291,88.9958 183.2191,88.9958 C173.5571,88.9958 166.4721,81.1748 165.7361,71.5128 Z M173.5571,71.5128 C173.9251,76.3898 177.7891,80.7148 184.1401,80.7148 C190.4891,80.7148 194.3541,76.3898 194.7221,71.5128 C194.9971,67.7398 194.9971,62.4038 194.7221,58.6298 C194.3541,53.7528 190.4891,49.4278 184.1401,49.4278 C177.7891,49.4278 173.9251,53.7528 173.5571,58.6298 C173.2811,62.4038 173.2811,67.7398 173.5571,71.5128 Z M250.1164,58.63 C250.3924,62.311 250.3924,67.832 250.1164,71.513 C249.3804,81.175 242.2944,88.996 232.6324,88.996 C228.3984,88.996 225.9144,86.696 224.0744,86.696 C222.6934,86.696 222.0494,87.247 222.0494,88.996 L222.0494,104.641 C222.0494,105.652 221.2224,106.481 220.2094,106.481 L215.6074,106.481 C214.5964,106.481 213.7684,105.652 213.7684,104.641 L213.7684,43.906 C213.7684,42.894 214.5964,42.067 215.6074,42.067 L218.7364,42.067 C219.2894,42.067 219.6564,42.343 220.0254,42.71 C220.5774,43.355 221.4054,44.183 222.3254,44.183 C224.9944,44.183 225.8224,41.147 232.6324,41.147 C242.2944,41.147 249.3804,48.968 250.1164,58.63 Z M242.2944,58.63 C241.9264,53.753 238.0614,49.428 231.7124,49.428 C225.3624,49.428 221.4974,53.753 221.1294,58.63 C220.8534,62.403 220.8534,67.739 221.1294,71.513 C221.4974,76.39 225.3624,80.715 231.7124,80.715 C238.0614,80.715 241.9264,76.39 242.2944,71.513 C242.5694,67.739 242.5694,62.403 242.2944,58.63 Z M259.3168,43.9064 C259.3168,42.8934 260.1448,42.0664 261.1568,42.0664 L265.7578,42.0664 C266.7708,42.0664 267.5978,42.8934 267.5978,43.9064 L267.5978,71.5124 C267.5978,76.8494 271.3718,80.7154 277.7208,80.7154 C283.4258,80.7154 287.8428,77.3094 287.8428,71.9714 L287.8428,43.9064 C287.8428,42.8934 288.6708,42.0664 289.6838,42.0664 L294.2848,42.0664 C295.2958,42.0664 296.1258,42.8934 296.1258,43.9064 L296.1258,86.2354 C296.1258,87.2474 295.2958,88.0764 294.2848,88.0764 L290.2358,88.0764 C289.6838,88.0764 289.3148,87.8004 288.9478,87.4314 C288.3948,86.7884 287.5668,85.9604 286.6468,85.9604 C283.9778,85.9604 283.6098,88.9964 276.8008,88.9964 C266.4018,88.9964 259.3168,81.6354 259.3168,71.5124 L259.3168,43.9064 Z M329.8032,50.8995 C330.1722,50.4405 329.8962,49.9795 329.3432,49.9795 L307.1662,49.9795 C306.1542,49.9795 305.3262,49.1515 305.3262,48.1395 L305.3262,43.9065 C305.3262,42.8935 306.1542,42.0665 307.1662,42.0665 L338.4532,42.0665 C339.4662,42.0665 340.2932,42.8935 340.2932,43.9065 L340.2932,49.1515 C340.2932,50.8075 339.2822,51.9115 338.4532,52.9245 L315.2642,79.2425 C314.8972,79.7025 315.1722,80.1625 315.7242,80.1625 L339.3732,80.1625 C340.3862,80.1625 341.2142,80.9915 341.2142,82.0035 L341.2142,86.2355 C341.2142,87.2475 340.3862,88.0765 339.3732,88.0765 L306.2462,88.0765 C305.2342,88.0765 304.4062,87.2475 304.4062,86.2355 L304.4062,80.8065 C304.4062,79.6105 304.4972,79.2425 305.6022,77.9535 L329.8032,50.8995 Z M372.1313,50.8995 C372.4993,50.4405 372.2233,49.9795 371.6713,49.9795 L349.4943,49.9795 C348.4823,49.9795 347.6533,49.1515 347.6533,48.1395 L347.6533,43.9065 C347.6533,42.8935 348.4823,42.0665 349.4943,42.0665 L380.7803,42.0665 C381.7933,42.0665 382.6213,42.8935 382.6213,43.9065 L382.6213,49.1515 C382.6213,50.8075 381.6103,51.9115 380.7803,52.9245 L357.5923,79.2425 C357.2243,79.7025 357.5003,80.1625 358.0523,80.1625 L381.7013,80.1625 C382.7133,80.1625 383.5423,80.9915 383.5423,82.0035 L383.5423,86.2355 C383.5423,87.2475 382.7133,88.0765 381.7013,88.0765 L348.5733,88.0765 C347.5623,88.0765 346.7343,87.2475 346.7343,86.2355 L346.7343,80.8065 C346.7343,79.6105 346.8253,79.2425 347.9303,77.9535 L372.1313,50.8995 Z M398.725,86.2355 C398.725,87.2475 397.896,88.0765 396.884,88.0765 L392.284,88.0765 C391.271,88.0765 390.443,87.2475 390.443,86.2355 L390.443,24.8575 C390.443,23.8455 391.271,23.0175 392.284,23.0175 L396.884,23.0175 C397.896,23.0175 398.725,23.8455 398.725,24.8575 L398.725,86.2355 Z M417.9552,67.7391 C417.4032,67.7391 417.0352,68.1081 417.0352,68.6591 C417.0352,77.0331 421.3602,80.7151 427.7092,80.7151 C432.4942,80.7151 436.0832,78.3221 437.1882,74.9171 C437.5562,73.7211 438.4762,73.3531 439.3042,73.3531 L443.9972,73.3531 C444.9172,73.3531 445.7452,73.9051 445.5622,75.1931 C444.4572,83.1991 437.2802,88.9961 427.7092,88.9961 C416.6672,88.9961 409.5812,81.1751 408.8452,71.5131 C408.5692,67.8321 408.5692,62.3111 408.8452,58.6301 C409.5812,48.9681 416.6672,41.1461 427.7092,41.1461 C438.8442,41.1461 446.1142,48.0481 446.1142,59.5501 L446.1142,65.8991 C446.1142,66.9121 445.2852,67.7391 444.2732,67.7391 L417.9552,67.7391 Z M417.2192,59.4581 C417.2192,60.0111 417.5872,60.3781 418.1392,60.3781 L437.2802,60.3781 C437.8312,60.3781 438.1992,60.0111 438.1992,59.4581 C438.1992,53.1071 433.5072,49.4281 427.8012,49.4281 C421.4522,49.4281 417.2192,53.8451 417.2192,59.4581 Z" fill="#000000" id="black"/>
        </g>
    </g>
</svg>