<?xml version="1.0" encoding="UTF-8" standalone="no"?>
<svg
   width="93.759995mm"
   height="29.13028mm"
   viewBox="0 0 93.759995 29.13028"
   version="1.1"
   id="svg8"
   inkscape:version="1.2.2 (b0a8486541, 2022-12-01)"
   sodipodi:docname="sponsors_edpuzzle_twitter.svg"
   inkscape:export-filename="/home/faparicio/pCloudDrive/crafters/sponsors_sequra_twitter.png"
   inkscape:export-xdpi="300"
   inkscape:export-ydpi="300"
   xml:space="preserve"
   xmlns:inkscape="http://www.inkscape.org/namespaces/inkscape"
   xmlns:sodipodi="http://sodipodi.sourceforge.net/DTD/sodipodi-0.dtd"
   xmlns="http://www.w3.org/2000/svg"
   xmlns:svg="http://www.w3.org/2000/svg"
   xmlns:rdf="http://www.w3.org/1999/02/22-rdf-syntax-ns#"
   xmlns:cc="http://creativecommons.org/ns#"
   xmlns:dc="http://purl.org/dc/elements/1.1/"><defs
     id="defs2"><style
       id="style910">.cls-1{fill:#fc3;}.cls-2{fill:#f90;}.cls-3{fill:#333;}</style></defs><sodipodi:namedview
     id="base"
     pagecolor="#ffffff"
     bordercolor="#666666"
     borderopacity="1.0"
     inkscape:pageopacity="0.0"
     inkscape:pageshadow="2"
     inkscape:zoom="0.83471317"
     inkscape:cx="296.50904"
     inkscape:cy="614.58237"
     inkscape:document-units="mm"
     inkscape:current-layer="layer1"
     inkscape:document-rotation="0"
     showgrid="false"
     inkscape:window-width="2560"
     inkscape:window-height="1371"
     inkscape:window-x="0"
     inkscape:window-y="0"
     inkscape:window-maximized="1"
     inkscape:showpageshadow="2"
     inkscape:pagecheckerboard="0"
     inkscape:deskcolor="#d1d1d1" /><metadata
     id="metadata5"><rdf:RDF><cc:Work
         rdf:about=""><dc:format>image/svg+xml</dc:format><dc:type
           rdf:resource="http://purl.org/dc/dcmitype/StillImage" /><dc:title /></cc:Work></rdf:RDF></metadata><g
     inkscape:label="Layer 1"
     inkscape:groupmode="layer"
     id="layer1"
     transform="translate(-17.373595,-76.621435)"><g
       id="Logo_Horizontal"
       transform="matrix(0.11338872,0,0,0.11338872,3.0231172,62.991699)"><g
         id="g930"><path
           class="cls-3"
           d="m 394.47,256.41 c -0.98,0 -1.63,0.65 -1.63,1.62 0,14.79 7.64,21.29 18.85,21.29 8.45,0 14.79,-4.23 16.74,-10.24 0.65,-2.11 2.28,-2.76 3.74,-2.76 h 8.29 c 1.63,0 3.09,0.98 2.76,3.25 -1.95,14.14 -14.62,24.37 -31.52,24.37 -19.5,0 -32.01,-13.81 -33.31,-30.87 -0.49,-6.5 -0.49,-16.25 0,-22.75 1.3,-17.06 13.81,-30.87 33.31,-30.87 19.5,0 32.5,12.19 32.5,32.5 v 11.21 c 0,1.79 -1.46,3.25 -3.25,3.25 h -46.47 z m -1.3,-14.62 c 0,0.98 0.65,1.62 1.62,1.62 h 33.8 c 0.97,0 1.62,-0.65 1.62,-1.62 0,-11.21 -8.29,-17.71 -18.36,-17.71 -11.21,0 -18.69,7.8 -18.69,17.71 z"
           id="path914" /><path
           class="cls-3"
           d="m 458.33,263.07 c -0.49,-6.5 -0.49,-16.25 0,-22.75 1.3,-17.06 13.81,-30.87 30.87,-30.87 7.48,0 11.86,4.06 15.11,4.06 2.44,0 3.57,-0.98 3.57,-4.06 v -28.76 c 0,-1.79 1.46,-3.25 3.25,-3.25 h 8.12 c 1.79,0 3.25,1.46 3.25,3.25 v 108.39 c 0,1.79 -1.46,3.25 -3.25,3.25 h -5.52 c -0.97,0 -1.63,-0.49 -2.28,-1.14 -0.97,-1.14 -2.44,-2.6 -4.06,-2.6 -4.71,0 -6.17,5.36 -18.2,5.36 -17.06,0 -29.57,-13.81 -30.87,-30.87 z m 13.81,0 c 0.65,8.61 7.47,16.25 18.69,16.25 11.22,0 18.04,-7.64 18.69,-16.25 0.49,-6.66 0.49,-16.09 0,-22.75 -0.65,-8.61 -7.48,-16.25 -18.69,-16.25 -11.21,0 -18.04,7.64 -18.69,16.25 -0.49,6.66 -0.49,16.09 0,22.75 z"
           id="path916" /><path
           class="cls-3"
           d="m 607.33,240.32 c 0.49,6.5 0.49,16.25 0,22.75 -1.3,17.06 -13.81,30.87 -30.88,30.87 -7.48,0 -11.86,-4.06 -15.11,-4.06 -2.44,0 -3.58,0.97 -3.58,4.06 v 27.63 c 0,1.79 -1.46,3.25 -3.25,3.25 h -8.12 c -1.79,0 -3.25,-1.46 -3.25,-3.25 V 214.32 c 0,-1.79 1.46,-3.25 3.25,-3.25 h 5.53 c 0.97,0 1.62,0.49 2.28,1.14 0.97,1.14 2.44,2.6 4.06,2.6 4.71,0 6.17,-5.36 18.2,-5.36 17.06,0 29.58,13.81 30.88,30.87 z m -13.81,0 c -0.65,-8.61 -7.48,-16.25 -18.69,-16.25 -11.21,0 -18.04,7.64 -18.69,16.25 -0.49,6.66 -0.49,16.09 0,22.75 0.65,8.61 7.48,16.25 18.69,16.25 11.21,0 18.04,-7.64 18.69,-16.25 0.49,-6.66 0.49,-16.09 0,-22.75 z"
           id="path918" /><path
           class="cls-3"
           d="m 623.58,214.32 c 0,-1.79 1.46,-3.25 3.25,-3.25 h 8.12 c 1.79,0 3.25,1.46 3.25,3.25 v 48.75 c 0,9.42 6.66,16.25 17.87,16.25 10.07,0 17.87,-6.01 17.87,-15.44 v -49.56 c 0,-1.79 1.46,-3.25 3.25,-3.25 h 8.12 c 1.79,0 3.25,1.46 3.25,3.25 v 74.75 c 0,1.79 -1.46,3.25 -3.25,3.25 h -7.15 c -0.97,0 -1.63,-0.49 -2.28,-1.14 -0.97,-1.14 -2.44,-2.6 -4.06,-2.6 -4.71,0 -5.36,5.36 -17.39,5.36 -18.36,0 -30.88,-13 -30.88,-30.87 v -48.75 z"
           id="path920" /><path
           class="cls-3"
           d="m 748.05,226.67 c 0.65,-0.81 0.16,-1.62 -0.81,-1.62 h -39.16 c -1.79,0 -3.25,-1.46 -3.25,-3.25 v -7.48 c 0,-1.79 1.46,-3.25 3.25,-3.25 h 55.25 c 1.79,0 3.25,1.46 3.25,3.25 v 9.26 c 0,2.92 -1.79,4.87 -3.25,6.66 l -40.95,46.47 c -0.65,0.81 -0.16,1.62 0.81,1.62 h 41.76 c 1.79,0 3.25,1.46 3.25,3.25 v 7.47 c 0,1.79 -1.46,3.25 -3.25,3.25 h -58.5 c -1.79,0 -3.25,-1.46 -3.25,-3.25 v -9.59 c 0,-2.11 0.16,-2.76 2.11,-5.04 l 42.74,-47.77 z"
           id="path922" /><path
           class="cls-3"
           d="m 822.8,226.67 c 0.65,-0.81 0.16,-1.62 -0.81,-1.62 h -39.16 c -1.79,0 -3.25,-1.46 -3.25,-3.25 v -7.48 c 0,-1.79 1.46,-3.25 3.25,-3.25 h 55.25 c 1.79,0 3.25,1.46 3.25,3.25 v 9.26 c 0,2.92 -1.79,4.87 -3.25,6.66 l -40.95,46.47 c -0.65,0.81 -0.16,1.62 0.81,1.62 h 41.76 c 1.79,0 3.25,1.46 3.25,3.25 v 7.47 c 0,1.79 -1.46,3.25 -3.25,3.25 h -58.5 c -1.79,0 -3.25,-1.46 -3.25,-3.25 v -9.59 c 0,-2.11 0.16,-2.76 2.11,-5.04 l 42.74,-47.77 z"
           id="path924" /><path
           class="cls-3"
           d="m 869.76,289.07 c 0,1.79 -1.46,3.25 -3.25,3.25 h -8.12 c -1.79,0 -3.25,-1.46 -3.25,-3.25 V 180.68 c 0,-1.79 1.46,-3.25 3.25,-3.25 h 8.12 c 1.79,0 3.25,1.46 3.25,3.25 z"
           id="path926" /><path
           class="cls-3"
           d="m 903.72,256.41 c -0.98,0 -1.63,0.65 -1.63,1.62 0,14.79 7.64,21.29 18.85,21.29 8.45,0 14.79,-4.23 16.74,-10.24 0.65,-2.11 2.28,-2.76 3.74,-2.76 h 8.29 c 1.63,0 3.09,0.98 2.76,3.25 -1.95,14.14 -14.62,24.37 -31.52,24.37 -19.5,0 -32.01,-13.81 -33.31,-30.87 -0.49,-6.5 -0.49,-16.25 0,-22.75 1.3,-17.06 13.81,-30.87 33.31,-30.87 19.5,0 32.5,12.19 32.5,32.5 v 11.21 c 0,1.79 -1.46,3.25 -3.25,3.25 h -46.47 z m -1.3,-14.62 c 0,0.98 0.65,1.62 1.62,1.62 h 33.8 c 0.97,0 1.62,-0.65 1.62,-1.62 0,-11.21 -8.29,-17.71 -18.36,-17.71 -11.21,0 -18.69,7.8 -18.69,17.71 z"
           id="path928" /></g><path
         class="cls-1"
         d="m 282.38,291.66 v 0 c 0,0 32.42,-32.42 32.42,-32.42 5.97,-5.97 5.97,-15.65 0,-21.61 l -32.42,-32.42 c 11.94,-11.94 11.94,-31.29 0,-43.23 -11.94,-11.94 -31.29,-11.94 -43.23,0 l -32.42,-32.42 c -5.97,-5.97 -15.65,-5.97 -21.61,0 l -54.04,54.04 v 129.68 c 0,0 54.03,54.04 54.03,54.04 5.97,5.97 15.65,5.97 21.61,0 l 32.42,-32.42 v 0 c -11.94,-11.94 -11.94,-31.29 0,-43.23 11.94,-11.94 31.29,-11.94 43.23,0 z"
         id="path932" /><path
         class="cls-2"
         d="m 131.09,313.27 54.04,-54.04 c 5.97,-5.97 5.97,-15.65 0,-21.61 l -54.04,-54.04 v 129.68 z"
         id="path934" /><path
         class="cls-3"
         d="m 318.55,233.8 -26.71,-26.71 c -1.08,-1.08 -1.27,-2.76 -0.44,-4.04 3.66,-5.69 5.62,-12.31 5.62,-19.23 0,-9.53 -3.71,-18.49 -10.45,-25.22 -12.05,-12.05 -30.65,-13.66 -44.45,-4.83 -1.29,0.82 -2.97,0.64 -4.05,-0.44 l -26.8,-26.8 c -3.44,-3.44 -7.91,-5.77 -12.75,-6.23 -6.19,-0.59 -12.11,1.55 -16.43,5.88 l -53.14,53.14 c -1.53,1.53 -2.39,3.6 -2.39,5.77 v 127.15 c 0,2.16 0.86,4.24 2.39,5.77 l 53.14,53.14 c 3.97,3.97 9.19,5.96 14.41,5.96 5.22,0 10.44,-1.99 14.42,-5.96 l 32.94,-32.94 c 1.7,-1.7 1.7,-4.47 0,-6.17 v 0 c -9.25,-9.25 -10.63,-24.15 -2.46,-34.36 9.64,-12.05 27.35,-12.78 37.95,-2.17 l 0.52,0.52 c 1.7,1.7 4.47,1.7 6.17,0 l 32.94,-32.94 c 3.98,-3.98 6.11,-9.32 5.96,-14.97 -0.14,-5.4 -2.58,-10.48 -6.4,-14.3 z m -136.46,7.65 c 1.92,1.92 2.98,4.48 2.98,7.2 0,2.72 -1.06,5.28 -2.98,7.2 l -39.75,39.75 c -2.06,2.06 -5.57,0.6 -5.57,-2.31 V 204 c 0,-2.91 3.52,-4.36 5.57,-2.31 l 39.75,39.75 z M 311.5,256.12 284.62,283 c -1.08,1.08 -2.76,1.26 -4.05,0.44 -13.8,-8.83 -32.4,-7.22 -44.45,4.83 -12.05,12.05 -13.66,30.65 -4.83,44.45 0.82,1.29 0.64,2.97 -0.44,4.05 l -26.88,26.88 c -1.76,1.76 -4.05,2.99 -6.54,3.21 -3.06,0.27 -5.99,-0.8 -8.13,-2.94 L 141.18,315.8 c -1.27,-1.27 -1.27,-3.34 0,-4.61 l 48.12,-48.12 c 7.96,-7.96 7.96,-20.87 0,-28.83 l -48.12,-48.12 c -1.27,-1.27 -1.27,-3.34 0,-4.61 l 47.85,-47.85 c 1.76,-1.76 4.05,-2.99 6.53,-3.21 3.06,-0.27 5.99,0.8 8.14,2.94 l 32.94,32.94 c 1.7,1.7 4.47,1.7 6.17,0 v 0 c 9.09,-9.09 25.05,-10.33 34.89,-2.04 6.15,5.19 9.43,12.7 9.08,20.68 -0.29,6.56 -3.3,12.71 -7.94,17.35 l -0.02,0.02 c -1.7,1.7 -1.7,4.47 0,6.17 l 32.94,32.95 c 2.14,2.14 3.21,5.07 2.94,8.14 -0.22,2.48 -1.45,4.77 -3.21,6.53 z"
         id="path936" /></g></g></svg>
