<?xml version="1.0" encoding="utf-8"?>
<!-- Generator: Adobe Illustrator 27.2.0, SVG Export Plug-In . SVG Version: 6.00 Build 0)  -->
<svg version="1.1" id="Capa_1" xmlns="http://www.w3.org/2000/svg" xmlns:xlink="http://www.w3.org/1999/xlink" x="0px" y="0px"
	 viewBox="0 0 200 50" style="enable-background:new 0 0 200 50;" xml:space="preserve">
<style type="text/css">
	.st0{fill:#00C2A3;}
	.st1{fill-rule:evenodd;clip-rule:evenodd;fill:#00C2A3;}
</style>
<g>
	<path class="st0" d="M109.8,40.1c-1.4,0-2.8-0.3-4.1-0.7c-0.2,0-0.2-0.2-0.1-0.4c2.3-2.7,4-6,4.8-9.5c1.1-5,0.4-10.2-2-14.7
		c-2.4-4.5-6.4-8-11.2-9.9c-4.8-1.9-10.1-2-15-0.4c-4.9,1.6-9,5-11.7,9.3c-2.7,4.4-3.7,9.6-2.8,14.6c0.8,5,3.5,9.6,7.4,13
		c3.8,3.2,8.6,5,13.5,5.1c0,0,0,0,0,0c0.4,0,0.8-0.2,1-0.5c0.2-0.3,0.3-0.6,0.3-0.9v-3.7c0-0.7-0.6-1.3-1.3-1.4
		c-3.4-0.1-6.7-1.4-9.4-3.6c-2.8-2.3-4.6-5.6-5.2-9.1c-0.6-3.5,0.1-7.2,2-10.3c1.9-3.1,4.8-5.4,8.2-6.6c3.4-1.1,7.2-1.1,10.5,0.3
		c3.4,1.3,6.1,3.8,7.8,7c1.7,3.2,2.2,6.8,1.4,10.3c-0.6,2.8-2.1,5.4-4.1,7.5c-0.1,0.1-0.3,0.1-0.4,0c-1.4-1.4-2.5-3.1-3.3-4.9
		c-0.7-1.7-1.1-3.5-1.2-5.3c0-0.8-0.6-1.3-1.4-1.3l-3.7,0c-0.3,0-0.7,0.1-0.9,0.3c-0.3,0.3-0.5,0.7-0.5,1.1c0.1,2.7,0.6,5.2,1.6,7.7
		c1.1,2.6,2.7,5,4.7,7c2,2,4.4,3.6,7.1,4.7c2.5,1,5.1,1.6,7.7,1.6c0,0,0,0,0,0c0.4,0,0.8-0.2,1-0.5c0.2-0.3,0.3-0.6,0.3-0.9l0-3.7
		C111.1,40.8,110.5,40.2,109.8,40.1"/>
	<path class="st0" d="M30.5,29.8L30.5,29.8c-0.5-1.1-1.3-2-2.3-2.7c-1-0.7-2.1-1.3-3.3-1.7c-1.3-0.5-2.6-0.9-3.9-1.2l0,0
		c-1-0.2-1.9-0.5-2.8-0.7c-0.8-0.3-1.6-0.6-2.3-0.9l0,0c-0.3-0.1-0.6-0.3-0.9-0.5c-0.2-0.1-0.4-0.3-0.6-0.5
		c-0.1-0.1-0.2-0.3-0.2-0.4c-0.1-0.1-0.1-0.3-0.1-0.4l0,0c0-0.4,0.2-0.8,0.5-1.1c0.3-0.4,0.8-0.7,1.2-0.9c0.6-0.2,1.2-0.4,1.8-0.5
		c0.7-0.1,1.3-0.1,2-0.1l0,0c1,0,2.1,0.3,3,0.8c0.7,0.3,2.1,1.5,2.8,2.2c0.3,0.2,0.7,0.3,1,0.1l3.9-2.7c0.4-0.3,0.5-0.8,0.2-1.1
		c-1-1.4-2.3-2.5-3.9-3.3c-2-0.9-4.1-1.5-6.3-1.6c-1.5-0.1-3,0-4.5,0.2c-1.4,0.2-2.7,0.7-4,1.3c-1.2,0.6-2.3,1.4-3.1,2.5
		c-0.8,1.1-1.3,2.4-1.4,3.7C7.2,21.5,7.4,22.8,8,24l0,0c0.6,1,1.5,1.9,2.5,2.5c1.1,0.7,2.3,1.3,3.6,1.7c1.3,0.4,2.7,0.8,4.2,1.2
		c0.8,0.2,1.5,0.4,2.4,0.7l0,0c0.7,0.2,1.3,0.5,1.9,0.8l0,0c0.5,0.3,0.8,0.6,1.1,1c0.2,0.4,0.3,0.8,0.3,1.2l0,0.1
		c0,0.5-0.2,0.9-0.5,1.3c-0.4,0.4-0.9,0.7-1.4,0.9l0,0c-0.6,0.3-1.3,0.4-2,0.5l0,0c-0.7,0.1-1.5,0.1-2.2,0l0,0
		c-1.5-0.1-2.9-0.5-4.1-1.2c-0.9-0.6-1.7-1.3-2.4-2c-0.3-0.3-0.7-0.4-1.1-0.1l-4.1,2.8c-0.4,0.3-0.5,0.8-0.2,1.2
		c1.2,1.4,2.7,2.6,4.5,3.5l0,0c2.2,0.9,4.6,1.5,7,1.6c0.6,0,1.1,0.1,1.7,0.1c1,0,2-0.1,3-0.2c1.5-0.2,2.9-0.6,4.3-1.2
		c1.3-0.6,2.4-1.5,3.3-2.6c0.9-1.2,1.4-2.7,1.5-4.2C31.3,32.3,31.1,31,30.5,29.8"/>
	<path class="st0" d="M179.5,35.6c-4.7,0-8.6-3.8-8.6-8.5s3.9-8.5,8.6-8.5c4.7,0,8.6,3.8,8.6,8.5S184.2,35.6,179.5,35.6 M194.3,27.1
		c0-8.1-6.6-14.7-14.8-14.7c-8.2,0-14.8,6.6-14.8,14.7s6.6,14.7,14.8,14.7c4.9,0,7.4-2.2,8.3-3.3c0.1-0.2,0.4-0.1,0.4,0.1v0.5v1.3
		c0,0.8,0.6,1.4,1.4,1.4h3.4c0.8,0,1.4-0.6,1.4-1.4v-13c0,0,0,0,0-0.1C194.3,27.3,194.3,27.2,194.3,27.1"/>
	<path class="st0" d="M163.3,12.8c-0.3-0.3-0.6-0.4-1-0.4c-1.8,0.1-3.5,0.4-5.1,1.1c-1.8,0.7-3.4,1.8-4.8,3.2
		c-1.4,1.4-2.5,3-3.2,4.8c-0.7,1.6-1,3.3-1.1,5.1c0,0,0,0,0,0.1c0,0,0,0,0,0v13.7c0,0.8,0.6,1.4,1.4,1.4h3.5c0.8,0,1.4-0.6,1.4-1.4
		V26.8c0,0,0-0.1,0-0.1c0-1,0.3-1.9,0.6-2.8c0.4-1,1.1-2,1.9-2.8c0.8-0.8,1.7-1.4,2.8-1.9c0.9-0.4,1.8-0.6,2.8-0.6
		c0.7,0,1.3-0.6,1.3-1.4v-3.4C163.7,13.5,163.5,13.1,163.3,12.8"/>
	<path class="st0" d="M142.4,12.2H139c-0.8,0-1.4,0.6-1.4,1.4v13.5c0,0,0,0.1,0,0.1v0.8c0,0.1,0,0.1,0,0.2c-0.2,1.9-1,3.6-2.3,4.9
		c-0.7,0.7-1.6,1.3-2.6,1.7c-1,0.4-2,0.6-3,0.6c-1,0-2.1-0.2-3-0.6c-1-0.4-1.8-1-2.6-1.7c-1.3-1.3-2.1-3-2.3-4.9c0-0.1,0-0.1,0-0.2
		v-0.8c0,0,0-0.1,0-0.1V13.6c0-0.8-0.6-1.4-1.4-1.4H117c-0.8,0-1.4,0.6-1.4,1.4v13.1v0.4v0.4c0,1.9,0.4,3.7,1.1,5.4
		c0.7,1.7,1.7,3.3,3.1,4.6c1.3,1.3,2.9,2.3,4.6,3.1c1.7,0.7,3.5,1.1,5.4,1.1c1.9,0,3.7-0.4,5.4-1.1c1.7-0.7,3.3-1.7,4.6-3.1
		c2.3-2.3,3.7-5.3,4.1-8.8c0-0.1,0-0.1,0-0.2v-1.4v-0.4V13.6C143.8,12.8,143.2,12.2,142.4,12.2"/>
	<path class="st1" d="M59.8,17.4c2.3,2.7,3.6,6.1,3.6,9.6v1.6c0,0.8-0.6,1.4-1.4,1.4H40.9c-0.2,0-0.4,0.2-0.3,0.4
		c0.1,0.2,0.2,0.4,0.3,0.6c0.9,1.9,2.6,3.5,4.6,4.3c2,0.8,4.2,0.9,6.2,0.2c1.3-0.4,2.4-1.2,3.4-2.1c0.5-0.5,1.2-0.6,1.7-0.3l2.7,1.4
		c0.8,0.4,0.9,1.4,0.4,2c-1.7,2-3.9,3.5-6.4,4.3c-3.4,1.1-7,1-10.3-0.3c-3.3-1.4-5.9-3.9-7.5-7.1c-1.6-3.2-1.9-6.8-1-10.3
		c0.9-3.4,3-6.4,6-8.4c2.9-2,6.5-2.8,10-2.3C54.3,13,57.5,14.8,59.8,17.4z M50.1,18.1c-2.2-0.3-4.4,0.2-6.2,1.5
		c-1.6,1.1-2.8,2.7-3.5,4.5c-0.1,0.1,0.1,0.3,0.2,0.3h16.5c0.2,0,0.3-0.2,0.2-0.3c-0.4-1.1-1-2.1-1.7-2.9
		C54.2,19.5,52.2,18.4,50.1,18.1z"/>
</g>
</svg>
