<svg id="Capa_3" data-name="Capa 3" xmlns="http://www.w3.org/2000/svg" viewBox="0 0 402.18 271.58"><defs><style>.cls-1{fill:#fff;}.cls-2{fill:#7fa62b;}.cls-3{fill:none;}</style></defs><title>logo_white</title><path class="cls-1" d="M1123.38,1011.2a11.81,11.81,0,0,0-10.32,5.42q-3.71,5.42-3.71,14.94,0,19.79,15.06,19.79a30.83,30.83,0,0,0,8.82-1.27,88.22,88.22,0,0,0,8.58-3v15.67a47.5,47.5,0,0,1-19.42,3.8q-15.52,0-23.8-9t-8.28-26a41.53,41.53,0,0,1,4-18.71,28.69,28.69,0,0,1,11.54-12.41,34.84,34.84,0,0,1,17.71-4.34,48.78,48.78,0,0,1,21.25,4.83l-5.68,14.59a63.81,63.81,0,0,0-7.6-3A26.55,26.55,0,0,0,1123.38,1011.2Z" transform="translate(-1090.32 -794.91)"/><path class="cls-1" d="M1218.5,1031.18q0,17.31-8.49,26.31t-24.86,9q-16.13,0-24.74-9.05t-8.61-26.36q0-17.12,8.56-26.15t24.88-9q16.37,0,24.81,9T1218.5,1031.18Zm-47.18,0q0,19.89,13.84,19.89,7,0,10.44-4.83t3.4-15.06q0-10.27-3.45-15.17t-10.3-4.9Q1171.32,1011.1,1171.32,1031.18Z" transform="translate(-1090.32 -794.91)"/><path class="cls-1" d="M1285.53,1029.82q0,17.17-9.45,26.45t-26.57,9.29h-22.18V997h23.73q16.51,0,25.49,8.44T1285.53,1029.82Zm-19.23.66q0-9.43-3.73-14t-11.33-4.55h-5.39v38.41H1250q8.44,0,12.38-4.9T1266.3,1030.47Z" transform="translate(-1090.32 -794.91)"/><path class="cls-1" d="M1335.06,1065.56h-40.71V997h40.71v14.87h-22.18v10.79h20.54v14.87h-20.54v12.95h22.18v15.1Z" transform="translate(-1090.32 -794.91)"/><path class="cls-2" d="M1391.9,1044.73a20.23,20.23,0,0,1-3.24,11.33,21.19,21.19,0,0,1-9.33,7.69,34.6,34.6,0,0,1-14.31,2.74,57.87,57.87,0,0,1-11.49-1,42.66,42.66,0,0,1-9.66-3.35v-16.51a55.18,55.18,0,0,0,11,4.24,41.07,41.07,0,0,0,10.51,1.52q4.13,0,6.05-1.43a4.4,4.4,0,0,0,1.92-3.68,4.05,4.05,0,0,0-.77-2.46,9,9,0,0,0-2.49-2.13q-1.71-1.08-9.12-4.41a43.77,43.77,0,0,1-10.06-5.91,18.14,18.14,0,0,1-5-6.57,21.8,21.8,0,0,1-1.62-8.77q0-9.47,6.89-14.77t18.95-5.3a53.17,53.17,0,0,1,21.72,4.92l-5.68,14.31q-9.61-4.41-16.6-4.41-3.61,0-5.25,1.27a3.83,3.83,0,0,0-1.64,3.14,4.54,4.54,0,0,0,2.09,3.61q2.09,1.59,11.33,5.82,8.86,4,12.31,8.56A18.59,18.59,0,0,1,1391.9,1044.73Z" transform="translate(-1090.32 -794.91)"/><path class="cls-2" d="M1473.88,1065.42V996.84h18.62v68.57h-18.62Z" transform="translate(-1090.32 -794.91)"/><path class="cls-2" d="M1442.34,996.7h-24.72l-22.37,68.85h20.36l3.47-12.85h22.28l3.38,12.85H1465Zm-14.46,43.57c3.91-6.07,2.71-18.22,2.71-18.22-0.13,4.93-5.19,11.89-7.55,14.88-2.1-2.48-4.71-6.87-1.33-11.26,8.5-11,10.08-12.75,11.14-14.68,0.12-.22.47-0.1,0.58,0.12a47,47,0,0,1,4.6,17.84C1438.51,1038,1430.22,1039.93,1427.88,1040.28Z" transform="translate(-1090.32 -794.91)"/><path class="cls-3" d="M1299.42,795.85L1367.18,835a3.33,3.33,0,0,1,1.66,2.88v78.23a3.33,3.33,0,0,1-1.66,2.88l-67.75,39.12a3.33,3.33,0,0,1-3.33,0L1228.34,919a3.33,3.33,0,0,1-1.66-2.88V837.85a3.33,3.33,0,0,1,1.66-2.88l67.75-39.12A3.33,3.33,0,0,1,1299.42,795.85Z" transform="translate(-1090.32 -794.91)"/><path class="cls-2" d="M1367.26,834.18l-67-38.67a4.45,4.45,0,0,0-4.46,0l-67,38.67a4.46,4.46,0,0,0-2.23,3.86v36.07a11.48,11.48,0,0,1,10.88,1.74,10.25,10.25,0,0,1,3.63,6.12c1.35,6.67-.78,9.68-3.44,11.85l4.55,16.56-8.13,11.9,8,4.65,9.35-13.69-4.34-31,3.22-4.71a14.3,14.3,0,0,1-2.44-18.23,14.46,14.46,0,0,1,19.76-4.35,14.28,14.28,0,0,1-9.94,26.14l-2.59,3.79,2.85,18.79,29.54-43.25a14.31,14.31,0,0,1-1.12-17.56,14.46,14.46,0,0,1,19.5-4,14.28,14.28,0,0,1-11.5,25.8L1251,928.43l21.46-6.55,18.66-27.32a14.31,14.31,0,0,1-.66-17.3,14.46,14.46,0,0,1,19.4-3.81,14.29,14.29,0,0,1-12,25.65l-19.85,29.07-22,6.71,39.89,23a4.46,4.46,0,0,0,4.46,0l67-38.67a4.46,4.46,0,0,0,2.23-3.86V838A4.46,4.46,0,0,0,1367.26,834.18Z" transform="translate(-1090.32 -794.91)"/><path class="cls-2" d="M1227.63,889.08a5,5,0,0,0,7.66-2.78,4.9,4.9,0,0,0-.92-4.49,5,5,0,0,0-7.74,0v6.37A4.94,4.94,0,0,0,1227.63,889.08Z" transform="translate(-1090.32 -794.91)"/><path class="cls-2" d="M1232.62,896.24a11.52,11.52,0,0,1-6-.46v19.59a4.46,4.46,0,0,0,2.23,3.86l7.2-10.54Z" transform="translate(-1090.32 -794.91)"/><path class="cls-2" d="M1302.2,855a5.63,5.63,0,1,0-6.14,1.16A5.64,5.64,0,0,0,1302.2,855Z" transform="translate(-1090.32 -794.91)"/><path class="cls-2" d="M1307.28,887.68a5.63,5.63,0,1,0-9.2,1.73A5.64,5.64,0,0,0,1307.28,887.68Z" transform="translate(-1090.32 -794.91)"/><path class="cls-2" d="M1265.19,869.22A5.63,5.63,0,1,0,1256,871,5.64,5.64,0,0,0,1265.19,869.22Z" transform="translate(-1090.32 -794.91)"/></svg>