<?xml version="1.0" encoding="utf-8"?>
<!-- Generator: Adobe Illustrator 23.0.1, SVG Export Plug-In . SVG Version: 6.00 Build 0)  -->
<svg version="1.1" id="Capa_1" xmlns="http://www.w3.org/2000/svg" xmlns:xlink="http://www.w3.org/1999/xlink" x="0px" y="0px"
	 viewBox="0 0 415.27 104.02" style="enable-background:new 0 0 415.27 104.02;" xml:space="preserve">
<style type="text/css">
	.st0{fill:#9839FF;}
</style>
<g>
	<path class="st0" d="M55.02,41.2c5.34,6.71,7.94,15.47,7.94,26.42c0,11.09-2.74,19.98-8.08,26.55c-5.34,6.57-12.59,9.86-21.9,9.86
		c-11.09,0-19.16-5.34-22.04-13.69l-0.68,12.32H0V0h11.09v45.58c3.15-8.62,12.04-14.37,22.99-14.37
		C42.84,31.21,49.82,34.49,55.02,41.2z M51.46,67.61c0-17.66-8.49-26.55-19.85-26.55c-11.5,0-19.57,8.76-20.53,21.9v9.31
		c0.96,13.14,9.03,21.9,20.53,21.9C42.98,94.17,51.46,85.54,51.46,67.61z"/>
	<path class="st0" d="M137.69,94.3v8.35c-2.33,0.68-4.38,0.96-6.16,0.96c-7.8,0-11.77-4.52-11.77-13.41v-0.14
		c-3.15,8.35-12.32,13.96-23.68,13.96c-13.69,0-22.58-8.21-22.58-20.94c0-13.14,9.31-20.67,22.58-21.9l16.29-1.64
		c3.28-0.27,6.84-0.82,6.84-6.98c0-8.08-5.75-12.04-15.19-12.04c-10.54,0-17.52,5.2-18.75,13.55H74.46
		c2.19-14.78,13.14-22.99,29.98-22.99c17.38,0,26.14,8.08,26.14,24.09v32.99c0,4.79,1.23,6.3,4.52,6.3
		C136.32,94.44,137.15,94.44,137.69,94.3z M119.63,67.75l-20.12,1.64c-9.85,0.96-14.78,5.34-14.78,13.14
		c0,7.67,5.34,11.91,13.55,11.91c6.3,0,11.36-2.19,15.33-6.43c3.97-4.38,6.02-9.85,6.02-16.56V67.75z"/>
	<path class="st0" d="M154.8,82.12c0.14,8.21,6.43,12.73,16.42,12.73c9.72,0,15.33-4.38,15.33-11.09c0-3.42-1.37-6.02-4.24-7.66
		c-2.74-1.64-3.15-1.64-6.02-2.6l-12.18-3.29c-4.79-1.23-7.94-2.6-12.32-5.34c-4.24-2.88-6.71-7.67-6.71-13.69
		c0-12.18,9.99-20.12,24.91-20.12c15.33,0,25.46,8.35,25.46,20.8H184.5c-0.14-7.53-5.89-11.63-14.65-11.63
		c-8.62,0-13.55,3.97-13.55,10.4c0,6.02,3.7,7.8,12.46,10.13l12.32,3.15c11.09,3.01,16.7,9.31,16.7,18.89
		c0,13-10.68,21.22-26.69,21.22c-16.42,0-26.96-8.76-27.37-21.9H154.8z"/>
	<path class="st0" d="M257.45,82.4h11.36c-2.87,13.55-14.1,21.63-28.88,21.63c-19.3,0-31.48-13.69-31.48-36.54
		s12.32-36.41,31.34-36.41c8.9,0,16.01,2.87,21.35,8.62c5.34,5.75,7.94,13.41,7.94,22.86c0,1.23-0.14,3.83-0.41,7.67h-48.86
		c0,15.88,7.53,24.23,19.98,24.23C248.97,94.44,255.4,89.92,257.45,82.4z M219.95,61.04h37.91v-0.27c0-13-7.53-20.12-18.62-20.12
		C227.62,40.65,220.91,48.45,219.95,61.04z"/>
	<path class="st0" d="M345.46,32.44v70.21h-11.09V42.02h-35.72v39.14c0,9.86,3.42,13.14,11.22,13.14c1.78,0,3.83-0.14,6.02-0.55v8.9
		c-3.29,0.82-6.3,1.23-8.9,1.23c-12.87,0-19.3-7.12-19.3-21.35V42.02h-14.78v-9.58h6.3c6.57,0,8.49-2.46,8.49-8.49V12.18h10.95
		v20.26H345.46z M332.6,3.01h14.37v11.5H332.6V3.01z"/>
	<path class="st0" d="M372.29,82.12c0.14,8.21,6.43,12.73,16.42,12.73c9.72,0,15.33-4.38,15.33-11.09c0-3.42-1.37-6.02-4.24-7.66
		c-2.74-1.64-3.15-1.64-6.02-2.6l-12.18-3.29c-4.79-1.23-7.94-2.6-12.32-5.34c-4.24-2.88-6.71-7.67-6.71-13.69
		c0-12.18,9.99-20.12,24.91-20.12c15.33,0,25.46,8.35,25.46,20.8h-10.95c-0.14-7.53-5.88-11.63-14.64-11.63
		c-8.62,0-13.55,3.97-13.55,10.4c0,6.02,3.7,7.8,12.46,10.13l12.32,3.15c11.09,3.01,16.7,9.31,16.7,18.89
		c0,13-10.68,21.22-26.69,21.22c-16.42,0-26.96-8.76-27.37-21.9H372.29z"/>
</g>
</svg>
