<?xml version="1.0"?>
<svg xmlns="http://www.w3.org/2000/svg" viewBox="0 0 64 64" width="512" height="512" fill="#0d1d31">
    <g id="social_distancing-protection-protect-face_shield-face_mask">
        <path d="M55,40h-.73a8.006,8.006,0,0,0,2.66-5H57a3.009,3.009,0,0,0,3-3,2.973,2.973,0,0,0-1.22-2.4A.981.981,0,0,0,59,29V28a10,10,0,0,0-20,0v1a.981.981,0,0,0,.22.6A2.973,2.973,0,0,0,38,32a3.009,3.009,0,0,0,3,3h.07a8.006,8.006,0,0,0,2.66,5H43a7.008,7.008,0,0,0-7,7V61a1,1,0,0,0,1,1H61a1,1,0,0,0,1-1V47A7.008,7.008,0,0,0,55,40Zm3-8a1,1,0,0,1-1,1V31A1,1,0,0,1,58,32ZM41,33a1,1,0,0,1,0-2Zm0-5a8,8,0,0,1,16,0h-.65l-4.73-3.78a.985.985,0,0,0-1.03-.13L41.79,28Zm2,1.65,7.85-3.49L55,29.48v3.19l-5.73-1.63a.991.991,0,0,0-.54,0L43,32.67Zm.05,5.09L49,33.04l5.95,1.7a6,6,0,0,1-11.9,0ZM60,60H38V47a5,5,0,0,1,5-5H55a5,5,0,0,1,5,5Z"/>
        <path d="M21,40h-.73a8.006,8.006,0,0,0,2.66-5H23a3.009,3.009,0,0,0,3-3,2.973,2.973,0,0,0-1.22-2.4A.981.981,0,0,0,25,29V28A10,10,0,0,0,5,28v1a.981.981,0,0,0,.22.6A2.973,2.973,0,0,0,4,32a3.009,3.009,0,0,0,3,3h.07a8.006,8.006,0,0,0,2.66,5H9a7.008,7.008,0,0,0-7,7V61a1,1,0,0,0,1,1H27a1,1,0,0,0,1-1V47A7.008,7.008,0,0,0,21,40Zm3-8a1,1,0,0,1-1,1V31A1,1,0,0,1,24,32ZM7,33a1,1,0,0,1,0-2Zm0-5a8,8,0,0,1,16,0h-.73L15.5,24.13a1.044,1.044,0,0,0-1,0L7.73,28Zm2,1.58,6-3.43,6,3.43v3.09l-5.73-1.63a.991.991,0,0,0-.54,0L9,32.67Zm.05,5.16L15,33.04l5.95,1.7a6,6,0,0,1-11.9,0ZM26,60H4V47a5,5,0,0,1,5-5H21a5,5,0,0,1,5,5Z"/>
        <path d="M19.293,11.707l1.414-1.414L18.414,8H45.586l-2.293,2.293,1.414,1.414,4-4a1,1,0,0,0,0-1.414l-4-4L43.293,3.707,45.586,6H18.414l2.293-2.293L19.293,2.293l-4,4a1,1,0,0,0,0,1.414Z"/>
        <path d="M26,16v2h5v2H25a1,1,0,0,1-1-1V15a1,1,0,0,1,1-1h4V12H24V10h6a1,1,0,0,1,1,1v4a1,1,0,0,1-1,1Z"/>
        <path d="M41,11v9H39V14l-1.2,1.6a1.041,1.041,0,0,1-1.6,0L35,14v6H33V11a1,1,0,0,1,1.8-.6L37,13.33l2.2-2.93A1,1,0,0,1,41,11Z"/>
    </g>
</svg>
