<?xml version="1.0" encoding="iso-8859-1"?>
<!-- Generator: Adobe Illustrator 19.0.0, SVG Export Plug-In . SVG Version: 6.00 Build 0)  -->
<svg version="1.1" id="Capa_1" xmlns="http://www.w3.org/2000/svg" x="0px" y="0px"
     viewBox="0 0 496 496" style="enable-background:new 0 0 496 496;" xml:space="preserve" fill="#0d1d31">
<g>
	<g>
		<g>
			<path d="M248,208c-22.056,0-40,17.944-40,40c0,22.056,17.944,40,40,40c22.056,0,40-17.944,40-40C288,225.944,270.056,208,248,208
				z M248,272c-13.232,0-24-10.768-24-24s10.768-24,24-24s24,10.768,24,24S261.232,272,248,272z"/>
			<path d="M424,192H293.152c-2.312-1.872-4.776-3.56-7.312-5.136c21.304-16.512,34.16-41.912,34.16-69.352V0h-56
				c-39.696,0-72,32.304-72,72v130.848c-1.872,2.312-3.56,4.776-5.136,7.312c-16.512-21.304-41.92-34.16-69.352-34.16H0v56
				c0,39.704,32.304,72,72,72h130.848c2.32,1.872,4.776,3.56,7.312,5.136c-21.304,16.512-34.16,41.912-34.16,69.36V496h56
				c39.696,0,72-32.296,72-72V293.152c1.872-2.32,3.56-4.776,5.136-7.312c16.512,21.304,41.912,34.16,69.352,34.16H496v-56
				C496,224.304,463.696,192,424,192z M208,72c0-30.88,25.12-56,56-56h40v101.512c0,25.368-13.44,48.6-35.144,61.592
				c-6.608-2-13.6-3.104-20.856-3.104c-2.704,0-5.368,0.176-8,0.472V128c0-12.52,5.984-24.488,16-32l12.8-9.6l-9.6-12.8l-12.8,9.6
				C232.376,93.72,224,110.464,224,128v52.2c-5.688,2.016-11.072,4.664-16,7.976V72z M72,288c-30.88,0-56-25.128-56-56v-40h101.512
				c25.368,0,48.6,13.44,61.592,35.144c-2,6.608-3.104,13.6-3.104,20.856c0,2.704,0.176,5.368,0.472,8H128
				c-12.52,0-24.488-5.984-32-16l-9.6-12.8l-12.8,9.6l9.6,12.8C93.72,263.624,110.464,272,128,272h52.2
				c2.016,5.688,4.664,11.072,7.976,16H72z M288,424c0,30.872-25.12,56-56,56h-40V378.496c0-25.368,13.448-48.608,35.152-61.6
				c6.6,2,13.6,3.104,20.848,3.104c2.704,0,5.368-0.176,8-0.472V368c0,12.52-5.984,24.488-16,32l-12.8,9.6l9.6,12.8l12.8-9.6
				c14.024-10.512,22.4-27.264,22.4-44.8v-52.2c5.688-2.016,11.072-4.664,16-7.976V424z M248,304c-30.88,0-56-25.128-56-56
				c0-30.88,25.12-56,56-56s56,25.12,56,56C304,278.872,278.88,304,248,304z M480,304H378.488c-25.368,0-48.6-13.44-61.592-35.144
				c2-6.608,3.104-13.6,3.104-20.856c0-2.704-0.176-5.368-0.472-8H368c12.52,0,24.488,5.984,32,16l9.6,12.8l12.8-9.592l-9.6-12.808
				C402.28,232.376,385.536,224,368,224h-52.2c-2.016-5.688-4.664-11.072-7.976-16H424c30.88,0,56,25.12,56,56V304z"/>
			<path d="M441.128,134.552l13.792-8.12c-26.504-45.024-67.656-80.72-115.88-100.512l-6.072,14.808
				C377.976,59.192,416.384,92.512,441.128,134.552z"/>
			<path d="M455.272,163.04l14.8-6.08c-2.112-5.136-4.432-10.272-6.896-15.272l-14.344,7.096
				C451.128,153.448,453.296,158.248,455.272,163.04z"/>
			<path d="M393.192,148.504l13.184-9.056c-17.08-24.888-40.096-45.664-66.544-60.096L332.168,93.4
				C356.424,106.632,377.52,125.688,393.192,148.504z"/>
			<path d="M410.008,179.136l14.72-6.272c-2.416-5.672-5.136-11.288-8.08-16.688L402.6,163.84
				C405.304,168.792,407.792,173.936,410.008,179.136z"/>
			<path d="M155.312,44.072l-6.632-14.56c-55.872,25.44-99.472,70.696-122.76,127.456l14.808,6.072
				C62.464,110.064,103.16,67.816,155.312,44.072z"/>
			<path d="M178.48,35.056l-4.96-15.216c-4.432,1.44-8.8,3.016-13.112,4.704l5.832,14.896
				C170.272,37.864,174.344,36.4,178.48,35.056z"/>
			<path d="M79.352,156.168l14.048,7.664c13.232-24.256,32.296-45.368,55.128-61.032l-9.048-13.2
				C114.576,106.688,93.792,129.712,79.352,156.168z"/>
			<path d="M70.336,384.36l-12.688,9.752c25.856,33.648,60.2,59.92,99.32,75.968l6.072-14.8
				C126.536,440.296,94.48,415.776,70.336,384.36z"/>
			<path d="M51.864,356.168l-14,7.752c3.096,5.6,6.464,11.152,10,16.48l13.336-8.832C57.896,366.584,54.76,361.408,51.864,356.168z"
				/>
			<path d="M102.808,347.496l-13.184,9.064c17.088,24.872,40.096,45.656,66.544,60.096l7.664-14.048
				C139.584,389.368,118.48,370.312,102.808,347.496z"/>
			<path d="M347.2,448.832l7.096,14.344c52.472-25.96,93.592-70.048,115.784-124.136l-14.808-6.08
				C434.56,383.448,396.176,424.592,347.2,448.832z"/>
			<path d="M317.512,460.952l4.968,15.2c5.632-1.832,11.2-3.888,16.56-6.096l-6.096-14.8
				C327.968,457.32,322.768,459.232,317.512,460.952z"/>
			<path d="M416.648,339.832l-14.048-7.656c-14.76,27.056-36.472,49.872-62.776,66l8.36,13.64
				C376.872,394.224,400.544,369.336,416.648,339.832z"/>
		</g>
	</g>
</g>
</svg>
